<svg xmlns="http://www.w3.org/2000/svg" width="32" height="22.71" viewBox="0 0 32 22.71">
  <g id="company-vision" transform="translate(0 -0.001)">
    <path id="Path_717" data-name="Path 717" d="M135.742,80a7.742,7.742,0,1,0,7.742,7.742A7.751,7.751,0,0,0,135.742,80Zm6.71,7.742a6.671,6.671,0,0,1-1.62,4.36l-4.573-4.573v-6.47a6.714,6.714,0,0,1,6.194,6.683Zm-7.226-6.683v6.167h-6.167A6.711,6.711,0,0,1,135.226,81.058Zm-6.167,7.2h6.47l4.573,4.573a6.7,6.7,0,0,1-11.043-4.573Zm0,0" transform="translate(-119.742 -74.838)" fill="#fff"/>
    <path id="Path_718" data-name="Path 718" d="M34.31,61.4l2.8-3.6-2.8-3.6A15.984,15.984,0,0,0,21.612,48h-.52A16.037,16.037,0,0,0,8.673,53.86l-2.81,3.412,2.8,3.8A16.146,16.146,0,0,0,21.3,67.6c.061,0,.121.01.182.01l.047,0,.08,0A15.983,15.983,0,0,0,34.31,61.4ZM21.532,66.578c-.076,0-.153-.005-.229-.007a8.588,8.588,0,1,1,.229.007ZM9.492,60.456l-2.32-3.149,2.3-2.791a15.022,15.022,0,0,1,5.884-4.352,9.772,9.772,0,0,0-.6,14.753,15.046,15.046,0,0,1-5.261-4.46Zm21.8-2.65a9.78,9.78,0,0,0-3.4-7.407,15.011,15.011,0,0,1,5.6,4.445l2.3,2.962-2.3,2.961a15.008,15.008,0,0,1-5.6,4.446,9.78,9.78,0,0,0,3.4-7.407Zm0,0" transform="translate(-5.485 -44.902)" fill="#fff"/>
    <path id="Path_719" data-name="Path 719" d="M17.206,1.033c9.4,0,15,8.453,15.051,8.539l.866-.561C32.884,8.643,27.178,0,17.206,0S1.527,8.643,1.289,9.011l.866.561C2.21,9.486,7.8,1.033,17.206,1.033Zm0,0" transform="translate(-1.206)" fill="#fff"/>
    <path id="Path_720" data-name="Path 720" d="M176,232h4.129v1.032H176Zm0,0" transform="translate(-164.645 -217.032)" fill="#fff"/>
    <path id="Path_721" data-name="Path 721" d="M232,264h3.1v1.032H232Zm0,0" transform="translate(-217.032 -246.967)" fill="#fff"/>
    <path id="Path_722" data-name="Path 722" d="M200,264h1.032v1.032H200Zm0,0" transform="translate(-187.097 -246.967)" fill="#fff"/>
    <path id="Path_723" data-name="Path 723" d="M184,128h2.581v1.032H184Zm0,0" transform="translate(-172.129 -119.741)" fill="#fff"/>
    <path id="Path_724" data-name="Path 724" d="M184,160h2.581v1.032H184Zm0,0" transform="translate(-172.129 -149.677)" fill="#fff"/>
    <path id="Path_725" data-name="Path 725" d="M280,192h1.032v1.032H280Zm0,0" transform="translate(-261.935 -179.612)" fill="#fff"/>
    <path id="Path_726" data-name="Path 726" d="M312,192h1.032v1.032H312Zm0,0" transform="translate(-291.871 -179.612)" fill="#fff"/>
    <path id="Path_727" data-name="Path 727" d="M0,264H1.032v1.032H0Zm0,0" transform="translate(0 -246.967)" fill="#fff"/>
    <path id="Path_728" data-name="Path 728" d="M0,296H1.032v1.032H0Zm0,0" transform="translate(0 -276.903)" fill="#fff"/>
    <path id="Path_729" data-name="Path 729" d="M0,328H1.032v1.032H0Zm0,0" transform="translate(0 -306.838)" fill="#fff"/>
    <path id="Path_730" data-name="Path 730" d="M32,296h1.032v1.032H32Zm0,0" transform="translate(-29.935 -276.903)" fill="#fff"/>
    <path id="Path_731" data-name="Path 731" d="M32,328h1.032v1.032H32Zm0,0" transform="translate(-29.935 -306.838)" fill="#fff"/>
    <path id="Path_732" data-name="Path 732" d="M64,328h1.032v1.032H64Zm0,0" transform="translate(-59.871 -306.838)" fill="#fff"/>
    <path id="Path_733" data-name="Path 733" d="M384,328h7.226v1.032H384Zm0,0" transform="translate(-359.226 -306.838)" fill="#fff"/>
    <path id="Path_734" data-name="Path 734" d="M432,296h4.129v1.032H432Zm0,0" transform="translate(-404.129 -276.903)" fill="#fff"/>
  </g>
</svg>
