<svg xmlns="http://www.w3.org/2000/svg" width="29.94" height="29.94" viewBox="0 0 29.94 29.94">
  <g id="consultant" transform="translate(0 0)">
    <path id="Path_735" data-name="Path 735" d="M132.533,20.422l-6.046-1.343v-.962a5.336,5.336,0,0,0,2.046-2.515h1.335a1.934,1.934,0,0,0,1.932-1.932v-3.38a1.925,1.925,0,0,0-.966-1.663V6.516a2.6,2.6,0,0,0-1.584-2.394l-.115-.23a6.751,6.751,0,0,0-12.788,3.02V8.628a1.925,1.925,0,0,0-.966,1.663v3.38a1.934,1.934,0,0,0,1.932,1.932h1.335a5.336,5.336,0,0,0,2.046,2.515v.962l-6.046,1.343a3.36,3.36,0,0,0-2.647,3.3v6.368h23.18V23.722a3.361,3.361,0,0,0-2.647-3.3Zm-5.63-.261-.718,2.87-1.838-1.224L126.159,20Zm-3.883,5.1h1.14l.772,3.863h-2.685Zm1.159-.966H123l-.309-1.236.9-.6.9.6Zm6.655-10.624a.967.967,0,0,1-.966.966H128.81a5.3,5.3,0,0,0,.092-.966V9.326h.966a.967.967,0,0,1,.966.966ZM117.313,6.911a5.785,5.785,0,0,1,10.959-2.587l.289.577.19.063a1.634,1.634,0,0,1,1.118,1.552V8.36H128.9V6.911h-.966v1.14a2.757,2.757,0,0,1-1.158.3,3.719,3.719,0,0,0,.594-.691l-.8-.536a2.762,2.762,0,0,1-2.206,1.228,3.746,3.746,0,0,0,.595-.692l-.8-.536a2.762,2.762,0,0,1-2.206,1.228,3.746,3.746,0,0,0,.595-.692l-.8-.536a2.765,2.765,0,0,1-2.3,1.233h-.191V6.911h-.966V8.36h-.966Zm0,7.727a.967.967,0,0,1-.966-.966v-3.38a.967.967,0,0,1,.966-.966h.966v4.346a5.3,5.3,0,0,0,.092.966Zm1.932-.966V9.326h.191a3.732,3.732,0,0,0,1.741-.431v.431h.674a3.732,3.732,0,0,0,1.741-.431v.431h.674A3.732,3.732,0,0,0,126,8.895v.431h.674a3.718,3.718,0,0,0,1.258-.228v4.574a4.333,4.333,0,0,1-.112.966h-2.392a1.447,1.447,0,0,0-1.36-.966h-.966a1.449,1.449,0,1,0,0,2.9h.966a1.447,1.447,0,0,0,1.36-.966h2.045a4.342,4.342,0,0,1-8.233-1.932Zm5.312,1.449a.484.484,0,0,1-.483.483h-.966a.483.483,0,0,1,0-.966h.966A.484.484,0,0,1,124.556,15.12Zm-.966,3.863a5.274,5.274,0,0,0,1.932-.369v.652L123.59,21.2l-1.932-1.932v-.652A5.274,5.274,0,0,0,123.59,18.984ZM121.022,20l1.811,1.811L121,23.031l-.718-2.87Zm-8.055,3.727a2.4,2.4,0,0,1,1.891-2.357l4.478-1,1.056,4.224,1.449-.966.29,1.162-.867,4.334H116.83V23.813h-.966v5.312h-2.9Zm21.248,5.4h-2.9V23.813h-.966v5.312h-4.433l-.867-4.334.29-1.162,1.449.966,1.056-4.224,4.478,1a2.4,2.4,0,0,1,1.891,2.357Zm0,0" transform="translate(-105.24 -0.151)" fill="#fff"/>
    <path id="Path_736" data-name="Path 736" d="M344.966,168.483a.483.483,0,1,1-.483-.483A.483.483,0,0,1,344.966,168.483Zm0,0" transform="translate(-323.235 -157.859)" fill="#fff"/>
    <path id="Path_737" data-name="Path 737" d="M248.966,168.483a.483.483,0,1,1-.483-.483A.483.483,0,0,1,248.966,168.483Zm0,0" transform="translate(-233.03 -157.859)" fill="#fff"/>
    <path id="Path_738" data-name="Path 738" d="M32,32h4.829v.966H32Zm0,0" transform="translate(-30.069 -30.069)" fill="#fff"/>
    <path id="Path_739" data-name="Path 739" d="M32,64h4.829v.966H32Zm0,0" transform="translate(-30.069 -60.137)" fill="#fff"/>
    <path id="Path_740" data-name="Path 740" d="M7.244,8.54V6.76H8.692V0H0V6.76H3.984ZM.966.965H7.727V5.794H6.278V6.912L4.23,5.794H.966Zm0,0" transform="translate(0)" fill="#fff"/>
    <path id="Path_741" data-name="Path 741" d="M10.141,138.141H2.351l.547-.819v-7.873a1.449,1.449,0,0,0-2.9,0v7.873l1.19,1.785h8.951Zm-8.692-9.175a.484.484,0,0,1,.483.483v.966H.966v-.966A.484.484,0,0,1,1.448,128.966Zm0,8.787-.483-.724V131.38h.966v5.648Zm0,0" transform="translate(0 -120.274)" fill="#fff"/>
    <path id="Path_742" data-name="Path 742" d="M152,264h.966v.966H152Zm0,0" transform="translate(-142.825 -248.065)" fill="#fff"/>
    <path id="Path_743" data-name="Path 743" d="M64,264h4.346v.966H64Zm0,0" transform="translate(-60.137 -248.065)" fill="#fff"/>
    <path id="Path_744" data-name="Path 744" d="M64,232h4.346v.966H64Zm0,0" transform="translate(-60.137 -217.996)" fill="#fff"/>
    <path id="Path_745" data-name="Path 745" d="M120,200h.966v.966H120Zm0,0" transform="translate(-112.757 -187.928)" fill="#fff"/>
    <path id="Path_746" data-name="Path 746" d="M64,200h2.415v.966H64Zm0,0" transform="translate(-60.137 -187.928)" fill="#fff"/>
  </g>
</svg>
