<svg xmlns="http://www.w3.org/2000/svg" width="4.878" height="9.402" viewBox="0 0 4.878 9.402">
  <g id="Group_129" data-name="Group 129" transform="translate(0)">
    <path id="Path_709" data-name="Path 709" d="M20.064,36.507a.747.747,0,0,1,.578-.2,3.369,3.369,0,0,1,.874.119l.251-1.342a4.717,4.717,0,0,0-1.586-.229,2.642,2.642,0,0,0-1.323.278,1.494,1.494,0,0,0-.709.734,3.421,3.421,0,0,0-.2,1.351v.529H16.888v1.537h1.061v4.826a6.436,6.436,0,0,0,1.388.147,2.957,2.957,0,0,0,.544-.034V39.282h1.406V37.744H19.88v-.5A1.038,1.038,0,0,1,20.064,36.507Z" transform="translate(-16.888 -34.853)" fill="#fff"/>
  </g>
</svg>
