<svg xmlns="http://www.w3.org/2000/svg" width="475.097" height="454.26" viewBox="0 0 475.097 454.26">
  <g id="Group_116" data-name="Group 116" transform="translate(-206.384 -25.329)">
    <g id="Group_92" data-name="Group 92" transform="translate(317.652 133.228)">
      <g id="Group_91" data-name="Group 91">
        <path id="Path_495" data-name="Path 495" d="M325.2,176.025l-26.211-15.251c-2.213-1.277-1.935-3.508.62-4.983L324.6,141.236c2.554-1.475,6.418-1.635,8.63-.358l26.211,15.251c2.212,1.277,1.935,3.508-.62,4.983l-24.983,14.556C331.28,177.142,327.416,177.3,325.2,176.025Z" transform="translate(-288.914 -97.055)" fill="#b2d3ea"/>
        <g id="Group_90" data-name="Group 90">
          <path id="Path_496" data-name="Path 496" d="M371.56,132.1h0v-6.672l-35.436-.02.245-.008c-2.811-1.623-7.72-1.419-10.966.454l1.05-.438-35.467-.02v7.123a3.176,3.176,0,0,0,1.884,2.937l33.307,19.38c2.811,1.623,7.721,1.419,10.967-.455l31.747-18.5C370.761,134.8,371.665,133.4,371.56,132.1Z" transform="translate(-290.971 -102.011)" fill="#173d7a"/>
          <path id="Path_497" data-name="Path 497" d="M331.281,124.307a12.652,12.652,0,0,0-5.878,1.542l1.05-.438-35.467-.02v7.123a3.176,3.176,0,0,0,1.884,2.937l33.307,19.38a9.928,9.928,0,0,0,5.089,1.088Z" transform="translate(-290.971 -102.01)" fill="#396caa"/>
          <path id="Path_498" data-name="Path 498" d="M295,125.134l-4.015,0v7.123a3.176,3.176,0,0,0,1.884,2.937L295,136.422Z" transform="translate(-290.971 -101.75)" fill="#b2d3ea"/>
          <path id="Path_499" data-name="Path 499" d="M318.272,150.035a12.508,12.508,0,0,0,8.767-.1v-9.324h-8.767Z" transform="translate(-282.362 -96.867)" fill="#274f89"/>
          <path id="Path_500" data-name="Path 500" d="M326.177,153.114,292.87,133.735c-2.811-1.623-2.459-4.458.788-6.332l31.746-18.5c3.246-1.873,8.156-2.077,10.967-.454l33.307,19.379c2.811,1.623,2.458,4.458-.787,6.332l-31.747,18.5C333.9,154.533,328.988,154.737,326.177,153.114Z" transform="translate(-290.972 -107.356)" fill="#d4ecff"/>
          <g id="Group_87" data-name="Group 87" transform="translate(30.885 10.746)">
            <path id="Path_501" data-name="Path 501" d="M325.229,124.525l-9.8-5.7c-1.309-.756-1.309-1.982,0-2.737a5.241,5.241,0,0,1,4.739,0l9.8,5.7c1.309.755,1.309,1.981,0,2.737A5.241,5.241,0,0,1,325.229,124.525Z" transform="translate(-314.452 -115.526)" fill="#fff"/>
          </g>
          <g id="Group_88" data-name="Group 88" transform="translate(48.972 21.256)">
            <path id="Path_502" data-name="Path 502" d="M335.13,130.327l-5.947-3.508c-1.309-.756-1.309-1.981,0-2.737a5.244,5.244,0,0,1,4.741,0l5.946,3.509c1.309.755,1.309,1.981,0,2.736A5.233,5.233,0,0,1,335.13,130.327Z" transform="translate(-328.202 -123.516)" fill="#fff"/>
          </g>
          <g id="Group_89" data-name="Group 89" transform="translate(21.003 16.433)">
            <path id="Path_503" data-name="Path 503" d="M313.867,126.66l-5.947-3.509c-1.307-.755-1.307-1.981,0-2.736a5.244,5.244,0,0,1,4.741,0l5.946,3.509c1.309.755,1.309,1.981,0,2.736A5.241,5.241,0,0,1,313.867,126.66Z" transform="translate(-306.94 -119.848)" fill="#fff"/>
          </g>
        </g>
      </g>
    </g>
    <path id="Path_504" data-name="Path 504" d="M604.6,305.248,418.714,197.925c-5.259-3.036-14.443-2.656-20.516.851L271.621,271.831c-6.072,3.506-6.732,8.808-1.473,11.844l63.908,36.9a34.042,34.042,0,0,0-13.862,4.036c-9.737,5.622-9.737,14.736,0,20.358s25.524,5.622,35.262,0c3.905-2.256,6.217-5.075,6.989-8l15.1,8.719a31.176,31.176,0,0,0-8.632,3.269c-9.934,5.735-9.933,15.035,0,20.77s26.04,5.735,35.974,0a17.039,17.039,0,0,0,5.663-4.984L456.037,391c5.259,3.036,14.444,2.654,20.516-.851l126.577-73.055C609.2,313.588,609.862,308.285,604.6,305.248Z" transform="translate(18.992 53.791)" fill="#b2d3ea"/>
    <g id="Group_94" data-name="Group 94" transform="translate(276.655 25.329)">
      <path id="Path_505" data-name="Path 505" d="M617.835,138.3,424.239,26.526a7.815,7.815,0,0,0-6.56-.805l.012-.02-.351.133c-.029.012-.058.021-.086.033l-7,2.677,6.28,3.074c-.029.116-.064.224-.091.342L384.913,175.5c-1.578,7.183,1.582,15.569,7.058,18.731L580.911,303.316l-.673,8.006,7.646-2.962c2.569-1.2,4.626-3.919,5.476-7.79L624.894,157.03C626.471,149.847,623.312,141.461,617.835,138.3Z" transform="translate(-220.474 -25.329)" fill="#173d7a"/>
      <path id="Path_506" data-name="Path 506" d="M615.159,138.3,421.564,26.526a7.815,7.815,0,0,0-6.56-.805l.012-.02-.351.133c-.029.012-.058.021-.086.033l-7,2.677,6.28,3.074c-.029.116-.064.224-.091.342l-20.782,94.6,94.724,73.8,133.562-54.347A15.029,15.029,0,0,0,615.159,138.3Z" transform="translate(-217.799 -25.329)" fill="#396caa"/>
      <path id="Path_507" data-name="Path 507" d="M559.83,133.028l14.738-6.274c.27-5.708-2.093-11.6-5.971-14.758l-23.327,9.813Z" transform="translate(-169.769 2.006)" fill="#274f89"/>
      <path id="Path_508" data-name="Path 508" d="M576.4,309.914l-193.6-111.772c-5.476-3.162-8.637-11.548-7.058-18.731l31.533-143.54c1.578-7.183,7.3-10.444,12.774-7.282l193.6,111.773c5.477,3.162,8.637,11.549,7.058,18.733L589.177,302.633C587.6,309.817,581.88,313.076,576.4,309.914Z" transform="translate(-223.365 -24.682)" fill="#d4ecff"/>
      <path id="Path_509" data-name="Path 509" d="M570.3,296.712,388.224,191.645c-5.01-2.894-7.9-10.568-6.459-17.141L410.621,43.153c1.444-6.573,6.677-9.556,11.689-6.663L604.383,141.558c5.012,2.894,7.9,10.568,6.46,17.141L581.987,290.05C580.542,296.623,575.31,299.606,570.3,296.712Z" transform="translate(-221.456 -22.157)" fill="#fff"/>
      <path id="Path_510" data-name="Path 510" d="M570.3,296.712,388.224,191.645c-5.01-2.894-7.9-10.568-6.459-17.141L410.621,43.153c1.444-6.573,6.677-9.556,11.689-6.663L604.383,141.558c5.012,2.894,7.9,10.568,6.46,17.141L581.987,290.05C580.542,296.623,575.31,299.606,570.3,296.712Z" transform="translate(-221.456 -22.157)" fill="#fff"/>
      <path id="Path_511" data-name="Path 511" d="M615.515,270.868l-26.463-3.5L418.226,168.747c-5.477-3.161-15.043-2.765-21.367.887l-121.046,69.86-16-2.113v9.079l.016,0c-.105,2.1,1.091,4.116,3.674,5.608L457.1,363.843c5.477,3.161,15.043,2.765,21.366-.887l131.825-76.083c3.558-2.053,5.331-4.7,5.227-7.185h0Z" transform="translate(-259.804 19.233)" fill="#173d7a"/>
      <path id="Path_512" data-name="Path 512" d="M487.163,200.173l-12.137-7.007H341.594l-65.781,37.952-16-2.113v9.079l.016,0c-.105,2.1,1.091,4.116,3.674,5.608L457.1,355.468c2.894,1.671,6.931,2.337,11.027,2.066Z" transform="translate(-259.804 27.608)" fill="#396caa"/>
      <path id="Path_513" data-name="Path 513" d="M266.913,221.35l-7.1-.938v9.079l.016,0c-.105,2.1,1.091,4.116,3.674,5.608l3.412,1.971Z" transform="translate(-259.804 36.201)" fill="#5793ce"/>
      <path id="Path_514" data-name="Path 514" d="M411.274,322.366c5.191,1.969,12.613,1.54,18.155-1.127V300.988H411.274Z" transform="translate(-212.032 61.615)" fill="#274f89"/>
      <path id="Path_515" data-name="Path 515" d="M457.1,358.383,263.5,246.61c-5.476-3.161-4.789-8.684,1.534-12.336l131.825-76.083c6.324-3.652,15.89-4.047,21.367-.885l193.6,111.772c5.476,3.161,4.789,8.684-1.535,12.336L478.464,357.5C472.141,361.149,462.576,361.545,457.1,358.383Z" transform="translate(-259.805 15.624)" fill="#d4ecff"/>
      <g id="Group_93" data-name="Group 93" transform="translate(76.802 177.678)">
        <path id="Path_516" data-name="Path 516" d="M327.426,199.672l-8.759-5.058c-.7-.406-.616-1.115.2-1.584l10.339-5.969a3.046,3.046,0,0,1,2.744-.114L340.706,192c.7.405.614,1.115-.2,1.584l-10.339,5.969A3.055,3.055,0,0,1,327.426,199.672Z" transform="translate(-318.192 -152.118)" fill="#173d7a"/>
        <path id="Path_517" data-name="Path 517" d="M337.71,205.609l-8.759-5.058c-.7-.406-.616-1.115.2-1.584L339.486,193a3.051,3.051,0,0,1,2.744-.114l8.761,5.058c.7.406.614,1.115-.2,1.584l-10.339,5.969A3.047,3.047,0,0,1,337.71,205.609Z" transform="translate(-314.948 -150.245)" fill="#173d7a"/>
        <path id="Path_518" data-name="Path 518" d="M347.993,211.546l-8.759-5.056c-.7-.406-.614-1.115.2-1.585l10.339-5.969a3.05,3.05,0,0,1,2.744-.113l8.759,5.056c.7.406.616,1.115-.2,1.585l-10.34,5.969A3.05,3.05,0,0,1,347.993,211.546Z" transform="translate(-311.705 -148.373)" fill="#173d7a"/>
        <path id="Path_519" data-name="Path 519" d="M362.216,206.413l-8.759-5.058c-.7-.405-.614-1.115.2-1.584l8.679-5.012a3.05,3.05,0,0,1,2.744-.113l8.759,5.058c.7.405.616,1.115-.2,1.584l-8.679,5.01A3.046,3.046,0,0,1,362.216,206.413Z" transform="translate(-307.219 -149.69)" fill="#173d7a"/>
        <path id="Path_520" data-name="Path 520" d="M372.5,212.35l-8.759-5.056c-.7-.406-.616-1.115.2-1.585l8.679-5.01a3.05,3.05,0,0,1,2.744-.114l8.759,5.058c.7.406.614,1.115-.2,1.584l-8.679,5.012A3.05,3.05,0,0,1,372.5,212.35Z" transform="translate(-303.975 -147.817)" fill="#173d7a"/>
        <path id="Path_521" data-name="Path 521" d="M382.784,218.287l-8.759-5.056c-.7-.406-.616-1.115.2-1.584l8.679-5.012a3.05,3.05,0,0,1,2.744-.113l8.761,5.056c.7.406.614,1.115-.2,1.585l-8.679,5.01A3.046,3.046,0,0,1,382.784,218.287Z" transform="translate(-300.732 -145.944)" fill="#173d7a"/>
        <path id="Path_522" data-name="Path 522" d="M393.067,224.225l-8.759-5.058c-.7-.406-.614-1.115.2-1.584l8.679-5.012a3.05,3.05,0,0,1,2.744-.113l8.759,5.058c.7.405.616,1.114-.2,1.584l-8.68,5.01A3.05,3.05,0,0,1,393.067,224.225Z" transform="translate(-297.488 -144.072)" fill="#173d7a"/>
        <path id="Path_523" data-name="Path 523" d="M403.351,230.162l-8.759-5.058c-.7-.405-.616-1.114.2-1.584l8.679-5.01a3.046,3.046,0,0,1,2.744-.114l8.759,5.058c.7.406.616,1.115-.2,1.584l-8.679,5.012A3.05,3.05,0,0,1,403.351,230.162Z" transform="translate(-294.245 -142.199)" fill="#173d7a"/>
        <path id="Path_524" data-name="Path 524" d="M413.635,236.1l-8.759-5.056c-.7-.406-.616-1.115.2-1.585l8.68-5.01a3.051,3.051,0,0,1,2.744-.114l8.759,5.058c.7.406.614,1.116-.2,1.585l-8.679,5.01A3.05,3.05,0,0,1,413.635,236.1Z" transform="translate(-291.001 -140.326)" fill="#173d7a"/>
        <path id="Path_525" data-name="Path 525" d="M423.919,242.037l-8.761-5.058c-.7-.406-.614-1.115.2-1.584l8.679-5.012a3.05,3.05,0,0,1,2.744-.113l8.759,5.056c.7.406.616,1.115-.2,1.585l-8.679,5.01A3.051,3.051,0,0,1,423.919,242.037Z" transform="translate(-287.758 -138.454)" fill="#173d7a"/>
        <path id="Path_526" data-name="Path 526" d="M434.2,247.974l-8.759-5.058c-.7-.405-.616-1.115.2-1.584l8.679-5.01a3.046,3.046,0,0,1,2.744-.114l8.759,5.058c.7.406.616,1.115-.2,1.584l-8.679,5.012A3.05,3.05,0,0,1,434.2,247.974Z" transform="translate(-284.514 -136.581)" fill="#173d7a"/>
        <path id="Path_527" data-name="Path 527" d="M444.486,253.911l-8.759-5.056c-.7-.406-.616-1.115.2-1.585l8.679-5.01a3.05,3.05,0,0,1,2.744-.114l8.759,5.058c.7.406.614,1.115-.2,1.584L447.23,253.8A3.05,3.05,0,0,1,444.486,253.911Z" transform="translate(-281.271 -134.708)" fill="#173d7a"/>
        <path id="Path_528" data-name="Path 528" d="M454.77,259.849l-8.759-5.058c-.7-.406-.616-1.115.2-1.584l8.679-5.012a3.05,3.05,0,0,1,2.744-.113l8.759,5.056c.7.406.616,1.115-.2,1.585l-8.679,5.01A3.051,3.051,0,0,1,454.77,259.849Z" transform="translate(-278.027 -132.836)" fill="#173d7a"/>
        <path id="Path_529" data-name="Path 529" d="M377.369,203.6l-8.759-5.058c-.7-.405-.616-1.115.2-1.584l8.679-5.01a3.046,3.046,0,0,1,2.744-.114l8.761,5.058c.7.405.614,1.115-.2,1.584l-8.679,5.01A3.046,3.046,0,0,1,377.369,203.6Z" transform="translate(-302.44 -150.576)" fill="#396caa"/>
        <path id="Path_530" data-name="Path 530" d="M366.932,197.576l-8.761-5.058c-.7-.405-.614-1.115.2-1.584l8.679-5.01a3.047,3.047,0,0,1,2.744-.114l8.759,5.058c.7.405.616,1.115-.2,1.584l-8.679,5.012A3.05,3.05,0,0,1,366.932,197.576Z" transform="translate(-305.732 -152.477)" fill="#396caa"/>
        <path id="Path_531" data-name="Path 531" d="M358.9,192.939l-18.865-10.892c-.7-.406-.614-1.115.2-1.584l8.679-5.012a3.05,3.05,0,0,1,2.744-.113L370.52,186.23c.7.406.616,1.115-.2,1.584l-8.679,5.012A3.05,3.05,0,0,1,358.9,192.939Z" transform="translate(-311.452 -155.779)" fill="#173d7a"/>
        <path id="Path_532" data-name="Path 532" d="M365.356,185.107l-15.31-8.84c-.7-.405-.616-1.115.2-1.584l8.679-5.01a3.046,3.046,0,0,1,2.744-.114l15.31,8.84c.7.406.614,1.115-.2,1.584l-8.679,5.012A3.05,3.05,0,0,1,365.356,185.107Z" transform="translate(-308.295 -157.602)" fill="#173d7a"/>
        <path id="Path_533" data-name="Path 533" d="M387.652,209.539l-8.759-5.056c-.7-.406-.614-1.115.2-1.585l8.679-5.01a3.05,3.05,0,0,1,2.744-.114l8.759,5.058c.7.406.616,1.115-.2,1.584l-8.679,5.012A3.05,3.05,0,0,1,387.652,209.539Z" transform="translate(-299.196 -148.703)" fill="#396caa"/>
        <path id="Path_534" data-name="Path 534" d="M397.936,215.477l-8.759-5.058c-.7-.406-.616-1.115.2-1.584l8.679-5.012a3.05,3.05,0,0,1,2.744-.113l8.759,5.056c.7.406.616,1.115-.2,1.585l-8.679,5.01A3.055,3.055,0,0,1,397.936,215.477Z" transform="translate(-295.953 -146.831)" fill="#173d7a"/>
        <path id="Path_535" data-name="Path 535" d="M408.22,221.414l-8.759-5.058c-.7-.406-.616-1.115.2-1.584l8.68-5.012a3.05,3.05,0,0,1,2.744-.113l8.759,5.058c.7.405.614,1.114-.2,1.584l-8.679,5.01A3.046,3.046,0,0,1,408.22,221.414Z" transform="translate(-292.709 -144.958)" fill="#173d7a"/>
        <path id="Path_536" data-name="Path 536" d="M418.5,227.351l-8.761-5.056c-.7-.406-.614-1.115.2-1.585l8.679-5.01a3.051,3.051,0,0,1,2.744-.114l8.759,5.058c.7.406.616,1.115-.2,1.584l-8.68,5.012A3.048,3.048,0,0,1,418.5,227.351Z" transform="translate(-289.465 -143.086)" fill="#173d7a"/>
        <path id="Path_537" data-name="Path 537" d="M428.787,233.288l-8.759-5.056c-.7-.406-.616-1.115.2-1.584l8.679-5.012a3.05,3.05,0,0,1,2.744-.113l8.759,5.056c.7.406.616,1.115-.2,1.585l-8.679,5.01A3.05,3.05,0,0,1,428.787,233.288Z" transform="translate(-286.222 -141.213)" fill="#173d7a"/>
        <path id="Path_538" data-name="Path 538" d="M439.071,239.226l-8.759-5.058c-.7-.406-.616-1.115.2-1.584l8.679-5.012a3.05,3.05,0,0,1,2.744-.113l8.759,5.056c.7.406.614,1.115-.2,1.585l-8.679,5.01A3.051,3.051,0,0,1,439.071,239.226Z" transform="translate(-282.979 -139.34)" fill="#173d7a"/>
        <path id="Path_539" data-name="Path 539" d="M449.355,245.163l-8.761-5.058c-.7-.405-.614-1.114.2-1.584l8.679-5.01a3.047,3.047,0,0,1,2.744-.114l8.759,5.058c.7.405.616,1.115-.2,1.584L452.1,245.05A3.05,3.05,0,0,1,449.355,245.163Z" transform="translate(-279.735 -137.468)" fill="#173d7a"/>
        <path id="Path_540" data-name="Path 540" d="M459.638,251.1l-8.759-5.056c-.7-.406-.614-1.115.2-1.585l8.679-5.01a3.046,3.046,0,0,1,2.744-.113l8.759,5.056c.7.406.616,1.115-.2,1.584l-8.679,5.012A3.05,3.05,0,0,1,459.638,251.1Z" transform="translate(-276.491 -135.595)" fill="#173d7a"/>
        <path id="Path_541" data-name="Path 541" d="M469.922,257.038l-8.759-5.058c-.7-.406-.616-1.115.2-1.584l8.679-5.012a3.05,3.05,0,0,1,2.744-.113l8.759,5.056c.7.406.614,1.115-.2,1.585l-8.679,5.01A3.051,3.051,0,0,1,469.922,257.038Z" transform="translate(-273.248 -133.722)" fill="#173d7a"/>
        <path id="Path_542" data-name="Path 542" d="M490.686,269.026l-19.113-11.035c-.7-.406-.614-1.115.2-1.584l8.679-5.012a3.05,3.05,0,0,1,2.744-.113l19.113,11.035c.7.405.616,1.114-.2,1.584l-8.679,5.01A3.05,3.05,0,0,1,490.686,269.026Z" transform="translate(-269.964 -131.826)" fill="#173d7a"/>
        <path id="Path_543" data-name="Path 543" d="M509.993,257.055l-16.131-9.314c-.7-.405-.616-1.115.2-1.584l8.68-5.012a3.047,3.047,0,0,1,2.743-.113l16.132,9.313c.7.406.616,1.115-.2,1.585l-8.679,5.01A3.05,3.05,0,0,1,509.993,257.055Z" transform="translate(-262.935 -135.06)" fill="#173d7a"/>
        <path id="Path_544" data-name="Path 544" d="M405.661,208.378,396.9,203.32c-.7-.406-.614-1.115.2-1.584l8.679-5.012a3.05,3.05,0,0,1,2.744-.113l8.759,5.056c.7.406.616,1.115-.2,1.585l-8.679,5.01A3.05,3.05,0,0,1,405.661,208.378Z" transform="translate(-293.516 -149.07)" fill="#173d7a"/>
        <path id="Path_545" data-name="Path 545" d="M395.122,202.293l-8.759-5.058c-.7-.406-.616-1.115.2-1.584l8.679-5.012a3.05,3.05,0,0,1,2.744-.113l8.759,5.056c.7.406.614,1.115-.2,1.585l-8.679,5.01A3.051,3.051,0,0,1,395.122,202.293Z" transform="translate(-296.84 -150.989)" fill="#173d7a"/>
        <path id="Path_546" data-name="Path 546" d="M384.582,196.208l-8.759-5.058c-.7-.406-.614-1.115.2-1.584l8.679-5.012a3.05,3.05,0,0,1,2.744-.113L396.2,189.5c.7.406.616,1.115-.2,1.585l-8.679,5.01A3.05,3.05,0,0,1,384.582,196.208Z" transform="translate(-300.164 -152.908)" fill="#396caa"/>
        <path id="Path_547" data-name="Path 547" d="M374.043,190.123l-8.759-5.058c-.7-.406-.616-1.115.2-1.584l8.679-5.012a3.05,3.05,0,0,1,2.744-.113l8.759,5.056c.7.406.614,1.115-.2,1.585l-8.679,5.01A3.051,3.051,0,0,1,374.043,190.123Z" transform="translate(-303.489 -154.828)" fill="#173d7a"/>
        <path id="Path_548" data-name="Path 548" d="M415.945,214.315l-8.759-5.058c-.7-.406-.616-1.115.2-1.584l8.679-5.012a3.05,3.05,0,0,1,2.744-.113l8.759,5.058c.7.405.616,1.115-.2,1.584l-8.679,5.01A3.046,3.046,0,0,1,415.945,214.315Z" transform="translate(-290.273 -147.197)" fill="#173d7a"/>
        <path id="Path_549" data-name="Path 549" d="M426.229,220.252l-8.759-5.058c-.7-.405-.616-1.114.2-1.584l8.68-5.01a3.051,3.051,0,0,1,2.744-.114l8.759,5.058c.7.406.614,1.115-.2,1.584l-8.679,5.012A3.051,3.051,0,0,1,426.229,220.252Z" transform="translate(-287.029 -145.325)" fill="#173d7a"/>
        <path id="Path_550" data-name="Path 550" d="M436.512,226.189l-8.759-5.056c-.7-.406-.614-1.115.2-1.585l8.679-5.01a3.05,3.05,0,0,1,2.744-.113l8.759,5.056c.7.406.616,1.115-.2,1.585l-8.68,5.01A3.05,3.05,0,0,1,436.512,226.189Z" transform="translate(-283.785 -143.452)" fill="#173d7a"/>
        <path id="Path_551" data-name="Path 551" d="M446.8,232.127l-8.759-5.058c-.7-.406-.616-1.115.2-1.584l8.679-5.012a3.05,3.05,0,0,1,2.744-.113l8.759,5.056c.7.406.616,1.115-.2,1.585l-8.679,5.01A3.046,3.046,0,0,1,446.8,232.127Z" transform="translate(-280.542 -141.579)" fill="#173d7a"/>
        <path id="Path_552" data-name="Path 552" d="M457.08,238.064l-8.759-5.058c-.7-.405-.616-1.115.2-1.584l8.679-5.01a3.05,3.05,0,0,1,2.744-.114l8.759,5.058c.7.406.614,1.115-.2,1.584l-8.679,5.012A3.05,3.05,0,0,1,457.08,238.064Z" transform="translate(-277.298 -139.707)" fill="#173d7a"/>
        <path id="Path_553" data-name="Path 553" d="M467.364,244l-8.761-5.056c-.7-.406-.614-1.115.2-1.585l8.679-5.01a3.051,3.051,0,0,1,2.744-.114l8.759,5.058c.7.406.616,1.115-.2,1.584l-8.679,5.012A3.05,3.05,0,0,1,467.364,244Z" transform="translate(-274.055 -137.834)" fill="#173d7a"/>
        <path id="Path_554" data-name="Path 554" d="M477.647,249.939l-8.759-5.058c-.7-.406-.614-1.115.2-1.584l8.679-5.012a3.05,3.05,0,0,1,2.744-.113l8.759,5.056c.7.406.616,1.115-.2,1.585l-8.679,5.01A3.05,3.05,0,0,1,477.647,249.939Z" transform="translate(-270.811 -135.961)" fill="#173d7a"/>
        <path id="Path_555" data-name="Path 555" d="M487.931,255.876l-8.759-5.058c-.7-.405-.616-1.115.2-1.584l8.679-5.01a3.046,3.046,0,0,1,2.744-.114l8.759,5.058c.7.405.614,1.115-.2,1.584l-8.679,5.012A3.05,3.05,0,0,1,487.931,255.876Z" transform="translate(-267.568 -134.089)" fill="#173d7a"/>
        <path id="Path_556" data-name="Path 556" d="M498.215,261.813l-8.759-5.056c-.7-.406-.616-1.115.2-1.585l8.679-5.01a3.051,3.051,0,0,1,2.744-.114l8.761,5.058c.7.406.614,1.115-.2,1.584l-8.679,5.012A3.05,3.05,0,0,1,498.215,261.813Z" transform="translate(-264.324 -132.216)" fill="#173d7a"/>
        <path id="Path_557" data-name="Path 557" d="M400.246,193.692l-8.759-5.058c-.7-.405-.614-1.115.2-1.584l8.679-5.01a3.046,3.046,0,0,1,2.744-.114l8.759,5.058c.7.405.616,1.115-.2,1.584l-8.679,5.012A3.05,3.05,0,0,1,400.246,193.692Z" transform="translate(-295.224 -153.702)" fill="#173d7a"/>
        <path id="Path_558" data-name="Path 558" d="M390.014,187.784l-8.759-5.056c-.7-.406-.616-1.115.2-1.585l8.68-5.01a3.05,3.05,0,0,1,2.744-.114l8.759,5.058c.7.406.614,1.115-.2,1.584l-8.679,5.012A3.05,3.05,0,0,1,390.014,187.784Z" transform="translate(-298.451 -155.565)" fill="#173d7a"/>
        <path id="Path_559" data-name="Path 559" d="M379.781,181.876l-8.759-5.056c-.7-.406-.614-1.115.2-1.584l8.679-5.012a3.05,3.05,0,0,1,2.744-.113l8.759,5.056c.7.406.616,1.115-.2,1.585l-8.679,5.01A3.046,3.046,0,0,1,379.781,181.876Z" transform="translate(-301.679 -157.428)" fill="#173d7a"/>
        <path id="Path_560" data-name="Path 560" d="M369.549,175.969l-8.759-5.058c-.7-.406-.616-1.115.2-1.584l8.68-5.012a3.048,3.048,0,0,1,2.743-.113l8.761,5.058c.7.405.614,1.114-.2,1.584l-8.679,5.01A3.051,3.051,0,0,1,369.549,175.969Z" transform="translate(-304.906 -159.292)" fill="#173d7a"/>
        <path id="Path_561" data-name="Path 561" d="M380.071,169.09l-8.759-5.058c-.7-.406-.616-1.115.2-1.584l2.869-1.656a3.047,3.047,0,0,1,2.744-.114l8.759,5.058c.7.405.614,1.115-.2,1.584l-2.869,1.656A3.05,3.05,0,0,1,380.071,169.09Z" transform="translate(-301.587 -160.404)" fill="#173d7a"/>
        <path id="Path_562" data-name="Path 562" d="M393.424,176.8l-8.759-5.056c-.7-.406-.614-1.115.2-1.585l2.869-1.656a3.05,3.05,0,0,1,2.744-.113l8.759,5.056c.7.406.616,1.115-.2,1.585l-2.87,1.656A3.05,3.05,0,0,1,393.424,176.8Z" transform="translate(-297.376 -157.972)" fill="#173d7a"/>
        <path id="Path_563" data-name="Path 563" d="M403.614,182.683l-8.759-5.058c-.7-.406-.614-1.115.2-1.584l2.869-1.657a3.05,3.05,0,0,1,2.744-.113l8.759,5.056c.7.406.616,1.115-.2,1.585l-2.869,1.656A3.05,3.05,0,0,1,403.614,182.683Z" transform="translate(-294.162 -156.116)" fill="#173d7a"/>
        <path id="Path_564" data-name="Path 564" d="M413.8,188.566l-8.759-5.058c-.7-.406-.616-1.115.2-1.584l2.869-1.657a3.05,3.05,0,0,1,2.744-.113l8.759,5.058c.7.405.616,1.114-.2,1.584l-2.869,1.656A3.051,3.051,0,0,1,413.8,188.566Z" transform="translate(-290.948 -154.261)" fill="#173d7a"/>
        <path id="Path_565" data-name="Path 565" d="M423.994,194.449l-8.759-5.058c-.7-.406-.616-1.115.2-1.584l2.869-1.656a3.047,3.047,0,0,1,2.744-.114l8.759,5.058c.7.405.616,1.115-.2,1.584l-2.869,1.656A3.046,3.046,0,0,1,423.994,194.449Z" transform="translate(-287.734 -152.405)" fill="#173d7a"/>
        <path id="Path_566" data-name="Path 566" d="M480.883,227.292l-8.759-5.056c-.7-.406-.616-1.115.2-1.584l2.87-1.657a3.05,3.05,0,0,1,2.744-.113l8.759,5.056c.7.406.614,1.115-.2,1.585l-2.869,1.656A3.05,3.05,0,0,1,480.883,227.292Z" transform="translate(-269.791 -142.046)" fill="#173d7a"/>
        <path id="Path_567" data-name="Path 567" d="M491.073,233.177l-8.761-5.058c-.7-.406-.614-1.115.2-1.584l2.869-1.657a3.05,3.05,0,0,1,2.744-.113l8.761,5.058c.7.405.614,1.114-.2,1.584l-2.869,1.656A3.051,3.051,0,0,1,491.073,233.177Z" transform="translate(-266.577 -140.19)" fill="#173d7a"/>
        <path id="Path_568" data-name="Path 568" d="M501.263,239.06,492.5,234c-.7-.405-.614-1.115.2-1.584l2.869-1.657a3.05,3.05,0,0,1,2.744-.113l8.759,5.058c.7.405.616,1.115-.2,1.584l-2.87,1.656A3.048,3.048,0,0,1,501.263,239.06Z" transform="translate(-263.363 -138.335)" fill="#173d7a"/>
        <path id="Path_569" data-name="Path 569" d="M511.452,244.943l-8.759-5.058c-.7-.405-.614-1.115.2-1.584l2.869-1.656a3.046,3.046,0,0,1,2.744-.114l8.759,5.058c.7.406.616,1.115-.2,1.584l-2.87,1.656A3.047,3.047,0,0,1,511.452,244.943Z" transform="translate(-260.149 -136.479)" fill="#173d7a"/>
        <path id="Path_570" data-name="Path 570" d="M410.53,199.629l-8.759-5.056c-.7-.406-.616-1.115.2-1.585l8.679-5.01a3.055,3.055,0,0,1,2.744-.114l8.759,5.058c.7.406.616,1.115-.2,1.584l-8.679,5.012A3.05,3.05,0,0,1,410.53,199.629Z" transform="translate(-291.98 -151.829)" fill="#173d7a"/>
        <path id="Path_571" data-name="Path 571" d="M420.814,205.567l-8.759-5.058c-.7-.406-.616-1.115.2-1.584l8.68-5.012a3.048,3.048,0,0,1,2.743-.113l8.761,5.056c.7.406.614,1.115-.2,1.585l-8.679,5.01A3.051,3.051,0,0,1,420.814,205.567Z" transform="translate(-288.737 -149.956)" fill="#173d7a"/>
        <path id="Path_572" data-name="Path 572" d="M431.1,211.5l-8.759-5.058c-.7-.405-.614-1.115.2-1.584l8.679-5.012a3.051,3.051,0,0,1,2.744-.113l8.759,5.058c.7.405.616,1.115-.2,1.584l-8.68,5.012A3.05,3.05,0,0,1,431.1,211.5Z" transform="translate(-285.493 -148.084)" fill="#173d7a"/>
        <path id="Path_573" data-name="Path 573" d="M441.381,217.441l-8.759-5.056c-.7-.406-.616-1.115.2-1.585l8.679-5.01a3.05,3.05,0,0,1,2.744-.114L453,210.732c.7.406.616,1.116-.2,1.584l-8.679,5.012A3.05,3.05,0,0,1,441.381,217.441Z" transform="translate(-282.25 -146.211)" fill="#173d7a"/>
        <path id="Path_574" data-name="Path 574" d="M451.665,223.379l-8.759-5.058c-.7-.406-.616-1.115.2-1.585l8.679-5.01a3.05,3.05,0,0,1,2.744-.113l8.759,5.056c.7.406.614,1.115-.2,1.585l-8.679,5.01A3.051,3.051,0,0,1,451.665,223.379Z" transform="translate(-279.006 -144.338)" fill="#173d7a"/>
        <path id="Path_575" data-name="Path 575" d="M461.949,229.316l-8.761-5.058c-.7-.406-.614-1.115.2-1.584l8.679-5.012a3.05,3.05,0,0,1,2.744-.113l8.759,5.058c.7.405.616,1.114-.2,1.584l-8.679,5.01A3.051,3.051,0,0,1,461.949,229.316Z" transform="translate(-275.763 -142.466)" fill="#173d7a"/>
        <path id="Path_576" data-name="Path 576" d="M472.232,235.253l-8.759-5.058c-.7-.405-.614-1.114.2-1.584l8.679-5.01a3.05,3.05,0,0,1,2.744-.114l8.759,5.058c.7.406.616,1.115-.2,1.584l-8.679,5.012A3.05,3.05,0,0,1,472.232,235.253Z" transform="translate(-272.519 -140.593)" fill="#173d7a"/>
        <path id="Path_577" data-name="Path 577" d="M482.516,241.19l-8.759-5.056c-.7-.406-.616-1.115.2-1.585l8.679-5.01a3.05,3.05,0,0,1,2.744-.113l8.759,5.056c.7.406.614,1.115-.2,1.584l-8.679,5.012A3.05,3.05,0,0,1,482.516,241.19Z" transform="translate(-269.276 -138.72)" fill="#173d7a"/>
        <path id="Path_578" data-name="Path 578" d="M492.8,247.128l-8.759-5.058c-.7-.406-.616-1.115.2-1.584l8.679-5.012a3.05,3.05,0,0,1,2.744-.113l8.761,5.056c.7.406.614,1.115-.2,1.585l-8.679,5.01A3.051,3.051,0,0,1,492.8,247.128Z" transform="translate(-266.032 -136.848)" fill="#173d7a"/>
        <path id="Path_579" data-name="Path 579" d="M355.823,202.721l-25.8-14.893c-.7-.406-.616-1.115.2-1.585l8.68-5.01a3.051,3.051,0,0,1,2.744-.114l25.8,14.894c.7.406.616,1.115-.2,1.584l-8.68,5.012A3.048,3.048,0,0,1,355.823,202.721Z" transform="translate(-314.609 -153.957)" fill="#173d7a"/>
        <path id="Path_580" data-name="Path 580" d="M482.159,275.661l-25.8-14.893c-.7-.406-.614-1.115.2-1.585l8.679-5.01a3.051,3.051,0,0,1,2.744-.114l25.8,14.894c.7.406.616,1.115-.2,1.585l-8.679,5.01A3.05,3.05,0,0,1,482.159,275.661Z" transform="translate(-274.762 -130.951)" fill="#173d7a"/>
        <path id="Path_581" data-name="Path 581" d="M436.948,262.9l-8.759-5.056c-.7-.406-.614-1.115.2-1.585l10.339-5.969a3.05,3.05,0,0,1,2.744-.113l8.759,5.056c.7.406.616,1.115-.2,1.585l-10.339,5.969A3.05,3.05,0,0,1,436.948,262.9Z" transform="translate(-283.648 -132.174)" fill="#173d7a"/>
        <path id="Path_582" data-name="Path 582" d="M363.527,220.515l-14.009-8.088c-.7-.406-.616-1.115.2-1.585l10.339-5.968a3.046,3.046,0,0,1,2.744-.114l14.009,8.088c.7.405.614,1.115-.2,1.584L366.271,220.4A3.051,3.051,0,0,1,363.527,220.515Z" transform="translate(-308.461 -146.5)" fill="#173d7a"/>
        <path id="Path_583" data-name="Path 583" d="M428.3,257.911l-14.009-8.088c-.7-.406-.616-1.115.2-1.584l10.339-5.969a3.046,3.046,0,0,1,2.744-.114l14.009,8.088c.7.406.614,1.115-.2,1.584L431.043,257.8A3.051,3.051,0,0,1,428.3,257.911Z" transform="translate(-288.032 -134.705)" fill="#173d7a"/>
        <path id="Path_584" data-name="Path 584" d="M378.364,229.081l-14.009-8.088c-.7-.406-.614-1.115.2-1.584l10.339-5.969a3.046,3.046,0,0,1,2.744-.114l14.009,8.088c.7.406.614,1.115-.2,1.584l-10.339,5.969A3.051,3.051,0,0,1,378.364,229.081Z" transform="translate(-303.781 -143.798)" fill="#173d7a"/>
        <path id="Path_585" data-name="Path 585" d="M377.593,213.3,438.5,248.464a.834.834,0,0,1,0,1.581l-10.543,6.086a3.021,3.021,0,0,1-2.736,0l-60.907-35.163Z" transform="translate(-303.645 -143.719)" fill="#173d7a"/>
        <path id="Path_586" data-name="Path 586" d="M465.162,270.606l9.756,5.634c.576.333.5.914-.162,1.3l-4.229,2.441a2.5,2.5,0,0,1-2.249.093l-9.756-5.633c-.577-.333-.505-.914.16-1.3l4.23-2.441A2.5,2.5,0,0,1,465.162,270.606Z" transform="translate(-274.054 -125.716)" fill="#173d7a"/>
        <path id="Path_587" data-name="Path 587" d="M454.793,264.62l9.756,5.633c.576.333.5.914-.162,1.3l-4.229,2.443a2.5,2.5,0,0,1-2.249.093l-9.756-5.634c-.577-.333-.505-.914.161-1.3l4.23-2.441A2.5,2.5,0,0,1,454.793,264.62Z" transform="translate(-277.325 -127.604)" fill="#173d7a"/>
        <path id="Path_588" data-name="Path 588" d="M444.508,258.682l9.756,5.634c.577.333.505.914-.16,1.3l-4.23,2.441a2.494,2.494,0,0,1-2.248.093l-9.758-5.633c-.576-.333-.5-.914.162-1.3l4.229-2.443A2.5,2.5,0,0,1,444.508,258.682Z" transform="translate(-280.568 -129.477)" fill="#173d7a"/>
        <path id="Path_589" data-name="Path 589" d="M460.47,261.341l9.758,5.633c.576.334.5.914-.162,1.3l-4.229,2.441a2.5,2.5,0,0,1-2.249.093l-9.756-5.634c-.577-.333-.505-.914.16-1.3l4.23-2.441A2.5,2.5,0,0,1,460.47,261.341Z" transform="translate(-275.534 -128.638)" fill="#173d7a"/>
      </g>
    </g>
    <g id="Group_98" data-name="Group 98" transform="translate(316.408 194.776)">
      <path id="Path_590" data-name="Path 590" d="M310.74,166.464s.65,13.408,1.671,22.418,22.722-6.92,22.722-6.92V171.7Z" transform="translate(-283.494 -150.261)" fill="#6614cf"/>
      <g id="Group_96" data-name="Group 96" transform="translate(11.432 5.308)">
        <path id="Path_591" data-name="Path 591" d="M319.58,294.6c.326.816,5.95,7.66,11.572,9.371a12.9,12.9,0,0,0,5.166.713,1.7,1.7,0,0,0,1.385-2.268,21.367,21.367,0,0,0-10.788-11.891C317.38,285.794,319.58,294.6,319.58,294.6Z" transform="translate(-292.207 -116.881)" fill="#173d7a"/>
        <path id="Path_592" data-name="Path 592" d="M319.989,295.283a46.545,46.545,0,0,1,2.772,9.128c.4,2.535-.994,5.827-2.14,8.011a2.34,2.34,0,0,1-3.646.631,13.528,13.528,0,0,1-4.563-8.724c-.652-7.008,0-8.23,0-8.23Z" transform="translate(-294.491 -114.939)" fill="#173d7a"/>
        <path id="Path_593" data-name="Path 593" d="M307.883,232.543a133.213,133.213,0,0,0,0,18.62c.734,9.779,3.36,55.51,3.848,66.511,0,0-.245,3.331,6.2,2.6s5.929-4.432,5.929-4.432,9.055-.122,9.341-5.459,9.275-63.739,9.275-84.736Z" transform="translate(-295.93 -136.904)" fill="#fdd762"/>
        <g id="Group_95" data-name="Group 95">
          <path id="Path_594" data-name="Path 594" d="M337.582,196.14l4.437,6.872,15.25,18.42a3.421,3.421,0,0,1-2.423,2.157c-1.482.35-14.309-11.889-19.849-17.258a4.252,4.252,0,0,1-.584-5.4Z" transform="translate(-287.683 -146.21)" fill="#ffc2b0"/>
          <path id="Path_595" data-name="Path 595" d="M330.072,174.7s7.047-.183,9.5,10,4.372,22.939,2.237,24c-6.4,3.181-10.459-.542-10.459-.542Z" transform="translate(-288.828 -152.973)" fill="#8a2ae3"/>
          <path id="Path_596" data-name="Path 596" d="M340.576,175.13a5.776,5.776,0,0,0-3.8-.209c-6,1.724-28.58,8.35-32.3,11.531-4.3,3.674,6.447,24.322,6.293,31.091s-.918,14.751-1.517,22.109-1.407,11.394,4.612,14.523,16.3,3.273,23.989-2.589,6.3-9.873,5.977-14.129-2.94-22.66-2.712-27.885a19.762,19.762,0,0,0,4.718-5.421c2.009-3.425-1.539-9.72-3.011-13.812s.831-8.772.375-12.112A3.789,3.789,0,0,0,340.576,175.13Z" transform="translate(-297.224 -152.973)" fill="#983be9"/>
          <path id="Path_597" data-name="Path 597" d="M330.266,181.753c.477,3.719-2.935,7.219-7.619,7.819s-8.867-1.927-9.345-5.646,2.936-7.22,7.62-7.82S329.79,178.034,330.266,181.753Z" transform="translate(-294.132 -152.556)" fill="#fff"/>
          <path id="Path_598" data-name="Path 598" d="M327.264,181.6c.341,2.658-2.1,5.16-5.446,5.589s-6.338-1.377-6.678-4.036,2.1-5.16,5.446-5.589S326.923,178.939,327.264,181.6Z" transform="translate(-293.548 -152.09)" fill="#ffc2b0"/>
          <path id="Path_599" data-name="Path 599" d="M323.338,174.491s-4.074-3.352-4.875-1.653S317,181.82,317,181.82l8.092,2.174-1.227-7.382S325.487,175.239,323.338,174.491Z" transform="translate(-292.951 -153.711)" fill="#ffc2b0"/>
          <path id="Path_600" data-name="Path 600" d="M337.225,170.978A12.084,12.084,0,1,1,325.874,158.2,12.084,12.084,0,0,1,337.225,170.978Z" transform="translate(-294.189 -158.182)" fill="#ffc2b0"/>
          <path id="Path_601" data-name="Path 601" d="M317.733,174.465c-.072.38-.141.789-.206,1.2.813,4.2,7.1,6.046,7.1,6.046l-.929-5.587s.762-.646.546-1.294C321.763,174.051,318.629,173.355,317.733,174.465Z" transform="translate(-292.785 -153.228)" fill="#ea9c92"/>
          <path id="Path_602" data-name="Path 602" d="M337.225,170.978A12.084,12.084,0,1,1,325.874,158.2,12.084,12.084,0,0,1,337.225,170.978Z" transform="translate(-294.189 -158.182)" fill="#ffc2b0"/>
          <path id="Path_603" data-name="Path 603" d="M299.63,206.255l1.353,32.337,4.727.488,3.077-29.11Z" transform="translate(-298.43 -143.019)" fill="#ffc2b0"/>
          <path id="Path_604" data-name="Path 604" d="M312.874,209.514c-1.564-6.906-4.655-22.161-4.655-22.161L306.9,202.526c1.525,4.5,2.833,8.63,2.779,11.024-.091,3.974-.393,8.366-.747,12.8v.014S314.439,216.418,312.874,209.514Z" transform="translate(-296.138 -148.981)" fill="#8a2ae3"/>
          <path id="Path_605" data-name="Path 605" d="M306.868,183.129s-3.78,1.444-5.919,13.055-3.74,23.243.074,24.741,7,2.627,8.123-.48,1.817-18.07,1.957-23.451S311.449,184.193,306.868,183.129Z" transform="translate(-298.718 -150.313)" fill="#b45ef4"/>
          <path id="Path_606" data-name="Path 606" d="M352.08,214.424a10.144,10.144,0,0,1,3.527,2.364,22.948,22.948,0,0,1,2.41,3.236c1.177,1.756,2.17,5.554,1.454,6.026s-4.825-6.357-5.487-4.768.005,3.057-.843,3.081-3.8-6.865-6.122-9S352.08,214.424,352.08,214.424Z" transform="translate(-283.626 -140.548)" fill="#ffc2b0"/>
        </g>
        <path id="Path_607" data-name="Path 607" d="M319.953,311.322a18.555,18.555,0,0,0,2.587-.267h0l1.773-71.088Z" transform="translate(-292.02 -132.386)" fill="#d8892b"/>
      </g>
      <g id="Group_97" data-name="Group 97" transform="translate(0 99.715)">
        <path id="Path_608" data-name="Path 608" d="M322.423,276.082l-2.515-3.283-26.453-15.317a3.677,3.677,0,0,1-1.532-2.937l.022-21.657-1.521-1.986,1.429-.827v0a.964.964,0,0,1,1.038.059l29.979,17.357a3.682,3.682,0,0,1,1.532,2.939l-.025,23.585a1.337,1.337,0,0,1-.562,1.258h0Z" transform="translate(-289.901 -229.952)" fill="#983be9"/>
        <path id="Path_609" data-name="Path 609" d="M304.13,263.663l-1.878-1.088-10.317-17.92.01-11.768-1.521-1.986,1.429-.827v0a.964.964,0,0,1,1.038.059l29.979,17.357a3.107,3.107,0,0,1,1.13,1.321Z" transform="translate(-289.901 -229.952)" fill="#d29fff"/>
        <path id="Path_610" data-name="Path 610" d="M291.1,231.783l-.675-.881,1.429-.827v0a.964.964,0,0,1,1.038.059l.529.305Z" transform="translate(-289.901 -229.952)" fill="#d29fff"/>
        <path id="Path_611" data-name="Path 611" d="M316.038,243.433a3.845,3.845,0,0,1,1.252,2.526l-2.931,1.69-1.4-2.437Z" transform="translate(-282.795 -225.7)" fill="#983be9"/>
        <path id="Path_612" data-name="Path 612" d="M321.569,248.122l-29.978-17.358c-.848-.491-1.538.029-1.539,1.16l-.025,23.586a3.681,3.681,0,0,0,1.532,2.937l29.979,17.357c.848.492,1.536-.028,1.538-1.159l.026-23.587A3.678,3.678,0,0,0,321.569,248.122Z" transform="translate(-290.027 -229.754)" fill="#b45ef4"/>
      </g>
      <path id="Path_613" data-name="Path 613" d="M300.946,231.573s-1.25,7.548-1.062,9.965,1.482,6.4,2.465,6.321.032-9.721,1.757-8.762,1.9,2.607,2.686,2.026-1.361-8.82-.791-12.391S300.946,231.573,300.946,231.573Z" transform="translate(-286.924 -130.963)" fill="#ffc2b0"/>
      <path id="Path_614" data-name="Path 614" d="M327.881,169.688c6.061,2.153,7.241.839,7.3.768.057-.364.1-.734.122-1.111a12.045,12.045,0,0,0-.4-3.861l-15.727-2.123S321.656,167.477,327.881,169.688Z" transform="translate(-280.834 -151.24)" fill="#ea9c92"/>
      <path id="Path_615" data-name="Path 615" d="M338.4,160.213c-1.429-1.225-6.584-7.278-15.819-5.85-5.771.892-10.636,4.83-11.715,13.812a20.641,20.641,0,0,0,5.585,16.419,4.877,4.877,0,0,0,.656-.333c2.312-1.522,2.562-2.359,2.562-2.366l.51-4.583a1.28,1.28,0,0,0-1.152-1.271,2.3,2.3,0,0,1-1.692-1.031c-1.327-1.735-.714-4.439,1.939-4.541a2.038,2.038,0,0,0,2.119-1.507,1.084,1.084,0,0,1,1.415-.737c3.018,1.092,10.455,3.446,15.242,2.09C344.174,168.58,339.829,161.437,338.4,160.213Z" transform="translate(-283.497 -154.146)" fill="#6614cf"/>
      <path id="Path_616" data-name="Path 616" d="M327.4,172.563l3.7-1.015s-1.764,2.777-4.341,3.485-2.977-1.473-2.977-1.473Z" transform="translate(-279.382 -148.658)" fill="#fff"/>
      <path id="Path_617" data-name="Path 617" d="M306.221,238.146l-3.15-1.8,1.183,1.931,1.592.588Z" transform="translate(-285.913 -128.221)" fill="#d29fff"/>
    </g>
    <g id="Group_103" data-name="Group 103" transform="translate(390.997 238.787)">
      <g id="Group_100" data-name="Group 100" transform="translate(2.993)">
        <path id="Path_618" data-name="Path 618" d="M372.87,313.437s-3.974-2-6.414.98-5.928,10.027-6.036,14.786,3.767,4.438,6.069,3.312,9.032-10.886,9.439-12.8-.481-4.5-1.129-5.005S372.87,313.437,372.87,313.437Z" transform="translate(-345.407 -148.124)" fill="#173d7a"/>
        <path id="Path_619" data-name="Path 619" d="M372.347,312.779l.184,4.117a2.335,2.335,0,0,1-1.163,2.141,4.583,4.583,0,0,1-3.066.476c-2.992-.48-3.26-1.336-3.474-5.451S372.347,312.779,372.347,312.779Z" transform="translate(-344.017 -148.424)" fill="#e8a200"/>
        <g id="Group_99" data-name="Group 99" transform="translate(0 73.033)">
          <path id="Path_620" data-name="Path 620" d="M361.813,307.42s-3.974-2-6.414.98-5.929,10.027-6.036,14.786,3.767,4.438,6.069,3.312,9.032-10.886,9.439-12.8-.481-4.5-1.129-5S361.813,307.42,361.813,307.42Z" transform="translate(-348.894 -223.055)" fill="#173d7a"/>
          <path id="Path_621" data-name="Path 621" d="M361.29,306.762l.184,4.117a2.335,2.335,0,0,1-1.163,2.141,4.59,4.59,0,0,1-3.066.476c-2.993-.481-3.26-1.336-3.474-5.452S361.29,306.762,361.29,306.762Z" transform="translate(-347.505 -223.354)" fill="#e8a200"/>
          <path id="Path_622" data-name="Path 622" d="M398.245,250.957c-1.176-19.134-20.722,2.815-20.722,2.815l-13.379,13.113L352.1,280.118a11.876,11.876,0,0,0-2.991,9.539l4.872,37.108a3.648,3.648,0,0,0,3.657,3.17,12.609,12.609,0,0,0,1.806-.159,4.534,4.534,0,0,0,4.026-4.81l-.892-34.706,25.3-15.251S399.422,270.092,398.245,250.957Z" transform="translate(-349.006 -243.126)" fill="#fdd762"/>
        </g>
        <path id="Path_623" data-name="Path 623" d="M409.3,256.5c-1.176-19.135-20.722,2.815-20.722,2.815L375.2,272.427l-12.047,13.234a11.875,11.875,0,0,0-2.991,9.539l4.872,37.106a3.647,3.647,0,0,0,3.657,3.17,12.412,12.412,0,0,0,1.806-.158,4.533,4.533,0,0,0,4.026-4.81l-.892-34.707,25.3-15.251S410.478,275.634,409.3,256.5Z" transform="translate(-345.519 -168.345)" fill="#fdd762"/>
        <path id="Path_624" data-name="Path 624" d="M395.56,208.438c14.819,6.143,14.522,14.9,14.522,14.9s-2.9,32.114-1.911,53.562c.413,8.964-47.636,9.65-40.471-14.271,8.449-28.2,5.283-51.035,9.238-54.479S391.727,206.849,395.56,208.438Z" transform="translate(-343.34 -181.706)" fill="#983be9"/>
        <path id="Path_625" data-name="Path 625" d="M395.911,215.674c-.775,3.008-4.717,4.593-8.805,3.541s-6.773-4.346-6-7.354,4.717-4.595,8.805-3.541S396.686,212.664,395.911,215.674Z" transform="translate(-338.923 -181.174)" fill="#ffc2b0"/>
        <path id="Path_626" data-name="Path 626" d="M389.776,220.415a10.736,10.736,0,0,1-2.678-.345c-4.459-1.148-7.377-4.834-6.506-8.217a5.664,5.664,0,0,1,3.58-3.774,9.85,9.85,0,0,1,6.086-.276c4.459,1.15,7.379,4.835,6.509,8.217h0C396.072,218.714,393.179,220.415,389.776,220.415ZM387.55,208.87a7.63,7.63,0,0,0-2.848.524,4.292,4.292,0,0,0-2.739,2.814c-.676,2.626,1.786,5.538,5.489,6.492s7.264-.405,7.942-3.032-1.788-5.537-5.49-6.492A9.454,9.454,0,0,0,387.55,208.87Z" transform="translate(-339.092 -181.344)" fill="#fff"/>
        <path id="Path_627" data-name="Path 627" d="M384.219,208.127a36.317,36.317,0,0,1-.128,5.291c-.082,1.476,5.088,2.854,6.424,1.518s.8-2.726,1.122-7.749S384.219,208.127,384.219,208.127Z" transform="translate(-337.94 -182.063)" fill="#ffc2b0"/>
        <path id="Path_628" data-name="Path 628" d="M391.638,206.7s-1.273,4.658-7.548,6.444l.095-4.233Z" transform="translate(-337.94 -181.581)" fill="#ea9c92"/>
        <path id="Path_629" data-name="Path 629" d="M398.234,199.757a11.407,11.407,0,1,1-13.9-8.188A11.407,11.407,0,0,1,398.234,199.757Z" transform="translate(-340.561 -186.47)" fill="#ffc2b0"/>
        <path id="Path_630" data-name="Path 630" d="M389.829,200.854s-6.28,2.691-10.628,2.722-3.391-3.611-3.391-3.611l12.909-1.865Z" transform="translate(-340.58 -184.294)" fill="#ea9c92"/>
        <path id="Path_631" data-name="Path 631" d="M379.092,204.875s5.471-2.323,10.271-1.355a5.03,5.03,0,0,1,2.9,1.723,1.7,1.7,0,0,0,.877.635c.851.193,2.244-3.338,3.9-3.419s2.758,1.091,1.4,3.262-.9,4.6-.275,4.95,7.244-4.721,1.4-16.287-20.67-5.337-22.978-2.993c0,0-2.431,2.116-4.407.233C372.188,191.625,369.973,208.22,379.092,204.875Z" transform="translate(-341.769 -187.605)" fill="#ff2c9c"/>
        <path id="Path_632" data-name="Path 632" d="M397.976,238.277v8.678a3.532,3.532,0,0,1-1.154,2.612L379,265.821l2.026,3.1,23.44-16.1a4.787,4.787,0,0,0,1.949-3.373l1.693-16.1Z" transform="translate(-339.547 -173.18)" fill="#ffc2b0"/>
        <path id="Path_633" data-name="Path 633" d="M400.8,215.958s5.409,8.133,7.423,29.541c0,0-9.238,2.989-14.481,1.292S400.8,215.958,400.8,215.958Z" transform="translate(-335.308 -178.662)" fill="#983be9"/>
        <path id="Path_634" data-name="Path 634" d="M393.212,223.776s-2.118,11.331-2.237,16.657a3.4,3.4,0,0,0,2.237,3.282h0Z" transform="translate(-335.769 -176.196)" fill="#6614cf"/>
      </g>
      <g id="Group_101" data-name="Group 101" transform="translate(2.85 86.161)">
        <path id="Path_635" data-name="Path 635" d="M401.857,270.332l-3.941-.521-25.433-14.684a3.535,3.535,0,0,0-3.181.132l-18.022,10.4-2.382-.314v2.372h0a.928.928,0,0,0,.547.835l28.823,16.641a3.531,3.531,0,0,0,3.181-.133l19.627-11.327a1.285,1.285,0,0,0,.779-1.069h0Z" transform="translate(-348.897 -252.569)" fill="#173d7a"/>
        <path id="Path_636" data-name="Path 636" d="M382.747,259.806l-1.807-1.043H361.075l-9.794,5.651L348.9,264.1v2.372h0a.928.928,0,0,0,.547.835l28.823,16.641a3,3,0,0,0,1.642.308Z" transform="translate(-348.897 -251.322)" fill="#396caa"/>
        <path id="Path_637" data-name="Path 637" d="M349.956,262.959l-1.058-.139v2.372h0a.928.928,0,0,0,.547.835l.508.293Z" transform="translate(-348.897 -250.043)" fill="#5793ce"/>
        <path id="Path_638" data-name="Path 638" d="M371.449,279.019a3.7,3.7,0,0,0,2.7-.167v-4.036h-2.7Z" transform="translate(-341.785 -246.259)" fill="#274f89"/>
        <path id="Path_639" data-name="Path 639" d="M378.271,283.361,349.448,266.72c-.816-.471-.713-1.293.228-1.836L369.3,253.556a3.535,3.535,0,0,1,3.181-.132l28.824,16.641c.816.471.713,1.293-.229,1.836L381.452,283.23A3.535,3.535,0,0,1,378.271,283.361Z" transform="translate(-348.897 -253.106)" fill="#fff"/>
        <path id="Path_640" data-name="Path 640" d="M376.713,279.381l-23.967-13.837c-.677-.392-.592-1.075.191-1.527l10.517-5.914a2.937,2.937,0,0,1,2.645-.109l23.967,13.837c.679.391.593,1.075-.189,1.527l-10.518,5.914A2.937,2.937,0,0,1,376.713,279.381Z" transform="translate(-347.828 -251.648)" fill="#d4ecff"/>
      </g>
      <path id="Path_641" data-name="Path 641" d="M365.367,253.273l-.3,1.989a14.7,14.7,0,0,0,.129,5.1l.355,1.752a2.468,2.468,0,0,0,1.974,1.936h0a1.359,1.359,0,0,0,1.594-1.186l.476-4.253s1.088,1.426,1.613,1.426-.587-4.258-1.774-6.668S365.367,253.273,365.367,253.273Z" transform="translate(-340.998 -167.208)" fill="#ffc2b0"/>
      <path id="Path_642" data-name="Path 642" d="M375.477,230.442l-3.092,6.122a11.984,11.984,0,0,0-1.265,4.646l-1.343,20.937-4.07-.1-1.847-23.513a8.662,8.662,0,0,1,.105-2.174l2.11-11.923Z" transform="translate(-341.337 -175.986)" fill="#ffc2b0"/>
      <g id="Group_102" data-name="Group 102" transform="translate(0 73.694)">
        <path id="Path_643" data-name="Path 643" d="M377.858,287.949l-2.416-3.154-25.416-14.715a3.54,3.54,0,0,1-1.473-2.823l.022-20.808-1.461-1.907,1.373-.8v0a.926.926,0,0,1,1,.058l28.8,16.675a3.538,3.538,0,0,1,1.472,2.823l-.024,22.662a1.283,1.283,0,0,1-.539,1.208h0Z" transform="translate(-346.611 -243.628)" fill="#173d7a"/>
        <path id="Path_644" data-name="Path 644" d="M360.281,276.017l-1.8-1.044-9.913-17.217.011-11.307-1.461-1.907,1.373-.8v0a.926.926,0,0,1,1,.058l28.8,16.675a2.992,2.992,0,0,1,1.085,1.269Z" transform="translate(-346.611 -243.628)" fill="#396caa"/>
        <path id="Path_645" data-name="Path 645" d="M347.761,245.388l-.648-.847,1.373-.8v0a.926.926,0,0,1,1,.058l.508.293Z" transform="translate(-346.611 -243.628)" fill="#5793ce"/>
        <path id="Path_646" data-name="Path 646" d="M371.722,256.58a3.693,3.693,0,0,1,1.2,2.427l-2.815,1.625-1.348-2.343Z" transform="translate(-339.783 -239.543)" fill="#274f89"/>
        <path id="Path_647" data-name="Path 647" d="M377.037,261.085l-28.8-16.675c-.814-.472-1.476.026-1.477,1.114l-.025,22.66a3.536,3.536,0,0,0,1.473,2.823l28.8,16.677c.814.471,1.476-.028,1.477-1.116l.025-22.66A3.54,3.54,0,0,0,377.037,261.085Z" transform="translate(-346.731 -243.438)" fill="#fff"/>
      </g>
      <path id="Path_648" data-name="Path 648" d="M382.813,261.13l-.462.955a6.4,6.4,0,0,1-2.407,2.669l-2.861,1.764a2.848,2.848,0,0,1-2.92.067c-.033-.018-.066-.038-.1-.058a1.721,1.721,0,0,1-.243-2.645l2.99-3.073s-1.68,1.286-2.151.768c-.345-.38,1.628-2.234,3.144-2.294a5.975,5.975,0,0,0,2.982-1.251Z" transform="translate(-338.346 -165.392)" fill="#ffc2b0"/>
      <path id="Path_649" data-name="Path 649" d="M378.461,207.677S367.5,219.6,363.08,230.543a22.377,22.377,0,0,0,12.921,9.4C385.176,242.594,378.461,207.677,378.461,207.677Z" transform="translate(-341.574 -181.274)" fill="#983be9"/>
      <path id="Path_650" data-name="Path 650" d="M371.912,235.785l1.777-17.161L369.5,234.7A24.426,24.426,0,0,0,371.912,235.785Z" transform="translate(-339.549 -177.821)" fill="#6614cf"/>
      <path id="Path_651" data-name="Path 651" d="M381.72,206.041l-2.945-.809a7.1,7.1,0,0,0,3.458,2.775c2.053.564,2.373-1.173,2.373-1.173Z" transform="translate(-336.624 -182.045)" fill="#fff"/>
    </g>
    <g id="Group_108" data-name="Group 108" transform="translate(206.384 338.982)">
      <g id="Group_104" data-name="Group 104">
        <path id="Path_652" data-name="Path 652" d="M240.664,332.736,214.1,317.284c-2.241-1.294-1.96-3.554.627-5.048l25.315-14.75c2.587-1.494,6.5-1.656,8.745-.363l26.558,15.453c2.241,1.294,1.96,3.554-.627,5.048l-25.315,14.75C246.82,333.868,242.9,334.03,240.664,332.736Z" transform="translate(-204.426 -253.533)" fill="#b2d3ea"/>
        <path id="Path_653" data-name="Path 653" d="M286.97,288.516h0v-6.673l-35.434-.02.245-.008c-2.811-1.623-7.721-1.419-10.967.455l1.05-.438-35.467-.02v7.122a3.18,3.18,0,0,0,1.882,2.939l33.307,19.379c2.811,1.623,7.721,1.419,10.968-.454L284.3,292.3C286.173,291.22,287.076,289.82,286.97,288.516Z" transform="translate(-206.382 -258.431)" fill="#173d7a"/>
        <path id="Path_654" data-name="Path 654" d="M246.693,280.727a12.637,12.637,0,0,0-5.879,1.542l1.05-.438-35.467-.02v7.122a3.18,3.18,0,0,0,1.882,2.939l33.307,19.379a9.93,9.93,0,0,0,5.091,1.088Z" transform="translate(-206.382 -258.428)" fill="#396caa"/>
        <path id="Path_655" data-name="Path 655" d="M210.41,281.552H206.4v7.122a3.18,3.18,0,0,0,1.882,2.939l2.131,1.23Z" transform="translate(-206.382 -258.168)" fill="#b2d3ea"/>
        <path id="Path_656" data-name="Path 656" d="M233.684,306.454a12.489,12.489,0,0,0,8.766-.1V297.03h-8.766Z" transform="translate(-197.774 -253.286)" fill="#274f89"/>
        <path id="Path_657" data-name="Path 657" d="M241.588,309.534l-33.307-19.38c-2.81-1.623-2.457-4.458.788-6.331l31.747-18.5c3.245-1.874,8.155-2.078,10.967-.455l33.307,19.38c2.811,1.622,2.459,4.458-.788,6.331l-31.746,18.5C249.31,310.953,244.4,311.156,241.588,309.534Z" transform="translate(-206.384 -263.775)" fill="#d4ecff"/>
      </g>
      <g id="Group_105" data-name="Group 105" transform="translate(30.884 10.747)">
        <path id="Path_658" data-name="Path 658" d="M240.64,280.944l-9.8-5.7c-1.309-.755-1.309-1.981,0-2.736a5.236,5.236,0,0,1,4.741,0l9.8,5.694c1.308.756,1.309,1.982,0,2.737A5.244,5.244,0,0,1,240.64,280.944Z" transform="translate(-229.863 -271.945)" fill="#fff"/>
      </g>
      <g id="Group_106" data-name="Group 106" transform="translate(48.972 21.257)">
        <path id="Path_659" data-name="Path 659" d="M250.541,286.748l-5.946-3.509c-1.309-.755-1.309-1.981,0-2.736a5.233,5.233,0,0,1,4.739,0l5.947,3.508c1.308.756,1.308,1.981,0,2.737A5.244,5.244,0,0,1,250.541,286.748Z" transform="translate(-243.614 -279.935)" fill="#fff"/>
      </g>
      <g id="Group_107" data-name="Group 107" transform="translate(21.003 16.433)">
        <path id="Path_660" data-name="Path 660" d="M229.278,283.079l-5.946-3.508c-1.309-.756-1.309-1.981,0-2.737a5.241,5.241,0,0,1,4.739,0l5.947,3.509c1.309.755,1.309,1.981,0,2.736A5.236,5.236,0,0,1,229.278,283.079Z" transform="translate(-222.351 -276.267)" fill="#fff"/>
      </g>
    </g>
    <g id="Group_109" data-name="Group 109" transform="translate(456.699 75.013)">
      <path id="Path_661" data-name="Path 661" d="M448.462,87.131l-11.76-6.79a3.361,3.361,0,0,1-1.435-3.482h0a1.636,1.636,0,0,1,2.516-1.2l11.758,6.789a3.361,3.361,0,0,1,1.435,3.482h0A1.636,1.636,0,0,1,448.462,87.131Z" transform="translate(-384.532 -59.222)" fill="#d4ecff"/>
      <path id="Path_662" data-name="Path 662" d="M471.094,100.2l-17.34-10.01a3.365,3.365,0,0,1-1.434-3.483h0a1.635,1.635,0,0,1,2.515-1.2l17.34,10.012A3.361,3.361,0,0,1,473.61,99h0A1.636,1.636,0,0,1,471.094,100.2Z" transform="translate(-379.153 -56.117)" fill="#d4ecff"/>
      <path id="Path_663" data-name="Path 663" d="M432.878,128.86l-11.76-6.79a3.363,3.363,0,0,1-1.434-3.482h0a1.636,1.636,0,0,1,2.515-1.2l11.76,6.789a3.361,3.361,0,0,1,1.435,3.482h0A1.636,1.636,0,0,1,432.878,128.86Z" transform="translate(-389.446 -46.06)" fill="#d4ecff"/>
      <path id="Path_664" data-name="Path 664" d="M453.2,140.592l-17.34-10.01a3.362,3.362,0,0,1-1.435-3.483h0a1.636,1.636,0,0,1,2.516-1.2l17.34,10.012a3.363,3.363,0,0,1,1.434,3.482h0A1.636,1.636,0,0,1,453.2,140.592Z" transform="translate(-384.797 -43.376)" fill="#d4ecff"/>
      <path id="Path_665" data-name="Path 665" d="M421.032,79.748l-7.347-4.241a3.366,3.366,0,0,1-1.435-3.483h0a1.637,1.637,0,0,1,2.516-1.2l7.346,4.241a3.364,3.364,0,0,1,1.434,3.483h0A1.635,1.635,0,0,1,421.032,79.748Z" transform="translate(-391.791 -60.747)" fill="#d4ecff"/>
      <path id="Path_666" data-name="Path 666" d="M441.864,100.23,419.418,87.271a3.363,3.363,0,0,1-1.434-3.482h0a1.635,1.635,0,0,1,2.515-1.2l22.445,12.958a3.361,3.361,0,0,1,1.435,3.482h0A1.636,1.636,0,0,1,441.864,100.23Z" transform="translate(-389.983 -57.036)" fill="#d4ecff"/>
      <path id="Path_667" data-name="Path 667" d="M423.321,106.433l-7.347-4.242a3.365,3.365,0,0,1-1.435-3.482h0a1.637,1.637,0,0,1,2.516-1.2l7.347,4.241a3.364,3.364,0,0,1,1.435,3.483h0A1.637,1.637,0,0,1,423.321,106.433Z" transform="translate(-391.069 -52.33)" fill="#d4ecff"/>
      <path id="Path_668" data-name="Path 668" d="M456.619,159.475,437,148.147a3.361,3.361,0,0,1-1.435-3.482h0a1.636,1.636,0,0,1,2.516-1.2L457.7,154.792a3.363,3.363,0,0,1,1.435,3.482h0A1.637,1.637,0,0,1,456.619,159.475Z" transform="translate(-384.438 -37.835)" fill="#d4ecff"/>
      <path id="Path_669" data-name="Path 669" d="M417.246,119.834l-4.716-2.722a3.365,3.365,0,0,1-1.435-3.483h0a1.637,1.637,0,0,1,2.516-1.2l4.716,2.723a3.364,3.364,0,0,1,1.435,3.482h0A1.637,1.637,0,0,1,417.246,119.834Z" transform="translate(-392.155 -47.624)" fill="#d4ecff"/>
      <path id="Path_670" data-name="Path 670" d="M414.943,135.413l-5.856-3.381a3.364,3.364,0,0,1-1.435-3.482h0a1.638,1.638,0,0,1,2.516-1.2l5.856,3.382a3.364,3.364,0,0,1,1.435,3.482h0A1.637,1.637,0,0,1,414.943,135.413Z" transform="translate(-393.242 -42.918)" fill="#d4ecff"/>
      <path id="Path_671" data-name="Path 671" d="M434.558,146.738l-15.438-8.913a3.361,3.361,0,0,1-1.435-3.482h0a1.636,1.636,0,0,1,2.515-1.2l15.439,8.914a3.361,3.361,0,0,1,1.435,3.482h0A1.636,1.636,0,0,1,434.558,146.738Z" transform="translate(-390.077 -41.091)" fill="#d4ecff"/>
      <path id="Path_672" data-name="Path 672" d="M418.465,145.9l-11.1-6.409a3.364,3.364,0,0,1-1.435-3.482h0a1.637,1.637,0,0,1,2.516-1.2l11.1,6.409a3.364,3.364,0,0,1,1.435,3.482h0A1.637,1.637,0,0,1,418.465,145.9Z" transform="translate(-393.785 -40.565)" fill="#d4ecff"/>
      <path id="Path_673" data-name="Path 673" d="M466.423,165.172l-7.129-4.116a3.364,3.364,0,0,1-1.435-3.482h0a1.637,1.637,0,0,1,2.516-1.2l7.128,4.116a3.363,3.363,0,0,1,1.435,3.483h0A1.636,1.636,0,0,1,466.423,165.172Z" transform="translate(-377.406 -33.764)" fill="#d4ecff"/>
      <path id="Path_674" data-name="Path 674" d="M447.038,120.127,427.418,108.8a3.362,3.362,0,0,1-1.435-3.483h0a1.636,1.636,0,0,1,2.515-1.2l19.622,11.328a3.363,3.363,0,0,1,1.434,3.482h0A1.636,1.636,0,0,1,447.038,120.127Z" transform="translate(-387.46 -50.247)" fill="#d4ecff"/>
      <path id="Path_675" data-name="Path 675" d="M451.893,114.475,417.7,94.731a3.366,3.366,0,0,1-1.435-3.482h0a1.637,1.637,0,0,1,2.516-1.2l34.2,19.743a3.362,3.362,0,0,1,1.435,3.483h0A1.636,1.636,0,0,1,451.893,114.475Z" transform="translate(-390.526 -54.683)" fill="#d4ecff"/>
      <path id="Path_676" data-name="Path 676" d="M433.873,120.981l-19.621-11.328a3.366,3.366,0,0,1-1.435-3.483h0a1.637,1.637,0,0,1,2.516-1.2L434.954,116.3a3.361,3.361,0,0,1,1.435,3.482h0A1.637,1.637,0,0,1,433.873,120.981Z" transform="translate(-391.612 -49.977)" fill="#d4ecff"/>
      <path id="Path_677" data-name="Path 677" d="M455.356,124.929l-7.128-4.116a3.363,3.363,0,0,1-1.435-3.483h0a1.636,1.636,0,0,1,2.515-1.2l7.129,4.116a3.364,3.364,0,0,1,1.435,3.482h0A1.637,1.637,0,0,1,455.356,124.929Z" transform="translate(-380.897 -46.457)" fill="#d4ecff"/>
      <path id="Path_678" data-name="Path 678" d="M517.265,126.855,475.05,102.481A3.364,3.364,0,0,1,473.615,99h0a1.637,1.637,0,0,1,2.516-1.2l42.215,24.373a3.362,3.362,0,0,1,1.435,3.483h0A1.636,1.636,0,0,1,517.265,126.855Z" transform="translate(-372.437 -52.239)" fill="#d4ecff"/>
      <path id="Path_679" data-name="Path 679" d="M434.394,138.189l-23.585-13.617a3.364,3.364,0,0,1-1.435-3.482h0a1.637,1.637,0,0,1,2.516-1.2l23.585,13.618a3.36,3.36,0,0,1,1.435,3.482h0A1.636,1.636,0,0,1,434.394,138.189Z" transform="translate(-392.699 -45.271)" fill="#d4ecff"/>
      <path id="Path_680" data-name="Path 680" d="M432.747,78.058l-17.34-10.012a3.364,3.364,0,0,1-1.435-3.482h0a1.637,1.637,0,0,1,2.516-1.2l17.34,10.012a3.362,3.362,0,0,1,1.435,3.482h0A1.637,1.637,0,0,1,432.747,78.058Z" transform="translate(-391.248 -63.1)" fill="#d4ecff"/>
      <path id="Path_681" data-name="Path 681" d="M418.27,154.243l-20.082-11.6a3.361,3.361,0,0,1-1.435-3.482h0a1.637,1.637,0,0,1,2.516-1.2l20.082,11.6a3.364,3.364,0,0,1,1.435,3.482h0A1.637,1.637,0,0,1,418.27,154.243Z" transform="translate(-396.679 -39.57)" fill="#d4ecff"/>
    </g>
    <g id="Group_110" data-name="Group 110" transform="translate(586.276 207.391)">
      <path id="Path_682" data-name="Path 682" d="M518.764,210.272,507,203.483A3.366,3.366,0,0,1,505.569,200h0a1.637,1.637,0,0,1,2.516-1.2l11.76,6.789a3.366,3.366,0,0,1,1.435,3.483h0A1.637,1.637,0,0,1,518.764,210.272Z" transform="translate(-491.935 -152.761)" fill="#d4ecff"/>
      <path id="Path_683" data-name="Path 683" d="M527.749,181.642,505.3,168.683a3.363,3.363,0,0,1-1.435-3.482h0a1.637,1.637,0,0,1,2.516-1.2l22.445,12.958a3.363,3.363,0,0,1,1.435,3.483h0A1.636,1.636,0,0,1,527.749,181.642Z" transform="translate(-492.471 -163.737)" fill="#d4ecff"/>
      <path id="Path_684" data-name="Path 684" d="M509.207,187.845l-7.347-4.241a3.365,3.365,0,0,1-1.435-3.483h0a1.637,1.637,0,0,1,2.516-1.2l7.346,4.242a3.362,3.362,0,0,1,1.434,3.482h0A1.636,1.636,0,0,1,509.207,187.845Z" transform="translate(-493.557 -159.031)" fill="#d4ecff"/>
      <path id="Path_685" data-name="Path 685" d="M503.132,201.247l-4.716-2.723a3.364,3.364,0,0,1-1.435-3.482h0a1.636,1.636,0,0,1,2.516-1.2l4.716,2.722a3.363,3.363,0,0,1,1.434,3.482h0A1.636,1.636,0,0,1,503.132,201.247Z" transform="translate(-494.643 -154.325)" fill="#d4ecff"/>
      <path id="Path_686" data-name="Path 686" d="M532.923,201.538,513.3,190.21a3.363,3.363,0,0,1-1.434-3.482h0a1.635,1.635,0,0,1,2.515-1.2L534,196.854a3.364,3.364,0,0,1,1.435,3.483h0A1.636,1.636,0,0,1,532.923,201.538Z" transform="translate(-489.948 -156.947)" fill="#d4ecff"/>
      <path id="Path_687" data-name="Path 687" d="M537.779,195.887l-34.2-19.743a3.366,3.366,0,0,1-1.435-3.483h0a1.637,1.637,0,0,1,2.516-1.2l34.2,19.744a3.364,3.364,0,0,1,1.435,3.482h0A1.637,1.637,0,0,1,537.779,195.887Z" transform="translate(-493.014 -161.384)" fill="#d4ecff"/>
      <path id="Path_688" data-name="Path 688" d="M519.759,202.393l-19.621-11.328a3.363,3.363,0,0,1-1.435-3.482h0a1.637,1.637,0,0,1,2.516-1.2l19.621,11.328a3.365,3.365,0,0,1,1.435,3.483h0A1.636,1.636,0,0,1,519.759,202.393Z" transform="translate(-494.1 -156.678)" fill="#d4ecff"/>
      <path id="Path_689" data-name="Path 689" d="M520.28,219.6l-23.585-13.617a3.364,3.364,0,0,1-1.435-3.482h0a1.636,1.636,0,0,1,2.516-1.2l23.585,13.617A3.364,3.364,0,0,1,522.8,218.4h0A1.636,1.636,0,0,1,520.28,219.6Z" transform="translate(-495.186 -151.972)" fill="#d4ecff"/>
    </g>
    <g id="Group_115" data-name="Group 115" transform="translate(528.973 398.764)">
      <g id="Group_111" data-name="Group 111">
        <path id="Path_690" data-name="Path 690" d="M486.05,379.076,458.426,363c-2.331-1.346-2.039-3.7.654-5.251l26.328-15.34c2.691-1.553,6.764-1.723,9.095-.376l27.623,16.072c2.331,1.346,2.039,3.7-.654,5.251L495.145,378.7C492.452,380.253,488.381,380.422,486.05,379.076Z" transform="translate(-449.974 -299.16)" fill="#b2d3ea"/>
        <path id="Path_691" data-name="Path 691" d="M532.21,333.963h0v-6.672l-35.434-.02.245-.008c-2.811-1.623-7.721-1.419-10.968.454l1.05-.438-35.466-.02v7.123a3.177,3.177,0,0,0,1.882,2.937l33.307,19.38c2.811,1.623,7.721,1.419,10.967-.455l31.747-18.5C531.412,336.668,532.316,335.267,532.21,333.963Z" transform="translate(-451.621 -303.878)" fill="#721bd5"/>
        <path id="Path_692" data-name="Path 692" d="M491.931,326.174a12.659,12.659,0,0,0-5.879,1.542l1.05-.438-35.466-.02v7.123a3.177,3.177,0,0,0,1.882,2.937l33.307,19.38a9.928,9.928,0,0,0,5.089,1.088Z" transform="translate(-451.621 -303.877)" fill="#983be9"/>
        <path id="Path_693" data-name="Path 693" d="M455.65,327l-4.013,0v7.123a3.177,3.177,0,0,0,1.882,2.937l2.131,1.231Z" transform="translate(-451.621 -303.617)" fill="#b45ef4"/>
        <path id="Path_694" data-name="Path 694" d="M478.924,351.9a12.5,12.5,0,0,0,8.766-.1v-9.324h-8.766Z" transform="translate(-443.013 -298.734)" fill="#7e23dc"/>
        <path id="Path_695" data-name="Path 695" d="M486.828,354.981,453.521,335.6c-2.811-1.623-2.459-4.458.788-6.332l31.746-18.5c3.246-1.873,8.157-2.077,10.968-.454L530.33,329.7c2.81,1.623,2.459,4.458-.788,6.332l-31.747,18.5C494.55,356.4,489.639,356.6,486.828,354.981Z" transform="translate(-451.623 -309.223)" fill="#8a2ae3"/>
      </g>
      <g id="Group_112" data-name="Group 112" transform="translate(30.634 11.759)">
        <path id="Path_696" data-name="Path 696" d="M485.689,327.16l-9.8-5.694c-1.309-.756-1.309-1.982,0-2.737a5.241,5.241,0,0,1,4.739,0l9.8,5.7c1.309.755,1.309,1.981,0,2.736A5.233,5.233,0,0,1,485.689,327.16Z" transform="translate(-474.912 -318.162)" fill="#b45ef4"/>
      </g>
      <g id="Group_113" data-name="Group 113" transform="translate(48.72 22.269)">
        <path id="Path_697" data-name="Path 697" d="M495.59,332.964l-5.947-3.508c-1.309-.756-1.309-1.982,0-2.737a5.244,5.244,0,0,1,4.741,0l5.946,3.51c1.309.755,1.309,1.981,0,2.736A5.237,5.237,0,0,1,495.59,332.964Z" transform="translate(-488.662 -326.152)" fill="#b45ef4"/>
      </g>
      <g id="Group_114" data-name="Group 114" transform="translate(20.752 17.446)">
        <path id="Path_698" data-name="Path 698" d="M474.327,329.3l-5.947-3.509c-1.307-.755-1.307-1.981,0-2.736a5.244,5.244,0,0,1,4.741,0l5.946,3.508c1.309.756,1.309,1.982,0,2.737A5.241,5.241,0,0,1,474.327,329.3Z" transform="translate(-467.4 -322.485)" fill="#b45ef4"/>
      </g>
    </g>
  </g>
</svg>
