<svg xmlns="http://www.w3.org/2000/svg" width="6.929" height="6.914" viewBox="0 0 6.929 6.914">
  <g id="Group_132" data-name="Group 132" transform="translate(0 0)">
    <path id="Path_716" data-name="Path 716" d="M37.529,34.715H32.437a.822.822,0,0,0-.92.926v5.08a.815.815,0,0,0,.889.908h5.123a.826.826,0,0,0,.917-.917V35.62A.818.818,0,0,0,37.529,34.715Zm-.559.779c.685,0,.685,0,.685.685s0,.672-.672.672-.682,0-.682-.679S36.3,35.494,36.97,35.494Zm-1.984,1.333a1.34,1.34,0,1,1-1.348,1.326A1.37,1.37,0,0,1,34.986,36.827Zm2.668,3.6c-.006.324-.089.416-.41.416H32.718c-.315,0-.406-.092-.406-.416,0-.828,0-1.678-.012-2.519,0-.238.067-.293.287-.284.318.021.324.009.287.318a2.12,2.12,0,0,0,4.141.828,2.109,2.109,0,0,0,.049-.993c-.024-.119.006-.144.113-.144.477-.037.477-.046.477.452Z" transform="translate(-31.517 -34.715)" fill="#fff" fill-rule="evenodd"/>
  </g>
</svg>
