<svg xmlns="http://www.w3.org/2000/svg" width="36" height="36" viewBox="0 0 36 36">
  <path id="team" d="M36,15.1h-1.3L32.75,16.12a2.887,2.887,0,0,0-.692-.285l-2.446-.612v-.278a4.078,4.078,0,0,0,1.742-3.332V10.6a4.172,4.172,0,0,0-3.94-4.209c-.11,0-.219,0-.328.007l.634-1.485L24.646,1.837l-1.813,1.18a9.821,9.821,0,0,0-2.173-.9L20.212,0H15.787L15.34,2.115a9.81,9.81,0,0,0-2.173.9l-1.813-1.18L8.282,4.909,8.905,6.4c-.024,0-.046-.005-.07-.006a4.066,4.066,0,0,0-4.19,4.062v1.161a4.076,4.076,0,0,0,1.742,3.332v.279l-1.6.4L1.9,13.935H0V25.967l5.712,1.9H6.825l.139-.487,1.751,1.051a1.808,1.808,0,0,0,1.743,1.752A1.808,1.808,0,0,0,12.2,31.929a1.808,1.808,0,0,0,1.742,1.742A1.806,1.806,0,0,0,16.765,35.1l.514.454A1.768,1.768,0,0,0,18.448,36h.107a1.768,1.768,0,0,0,1.765-1.744,1.766,1.766,0,0,0,1.742-1.742A1.766,1.766,0,0,0,23.8,30.77a1.786,1.786,0,0,0,1.744-1.782,1.7,1.7,0,0,0-.009-.174L36,23.585Zm-5.806-4.5v1.015a2.914,2.914,0,0,1-1.453,2.513l-.29.168,0,1.837,2.9.725-6.385,3.361V18.652a2.889,2.889,0,0,0-.832-2.023l1.993-.5V14.292l-.29-.168a2.911,2.911,0,0,1-1.452-2.511V10.451a2.9,2.9,0,0,1,2.993-2.9A3,3,0,0,1,30.193,10.6ZM18.875,19.76l-2.628-.84a7.17,7.17,0,0,0-3.721-.17l-.333.074v-.172a1.741,1.741,0,0,1,1.319-1.69l3.326-.831V14.292l-.29-.168A2.911,2.911,0,0,1,15.1,11.613V10.451a2.9,2.9,0,0,1,2.993-2.9A3,3,0,0,1,20.9,10.6v1.015a2.914,2.914,0,0,1-1.453,2.513l-.29.168,0,1.837,3.325.831a1.741,1.741,0,0,1,1.319,1.69v2.176l-.143.075h-.356l-3.57-1.02a3.66,3.66,0,0,0-.862-.123ZM12.323,8.69a6.383,6.383,0,0,1,11.329-.047,4.038,4.038,0,0,0-.427,1.808v1.161a4.076,4.076,0,0,0,1.742,3.332v.279l-2.323.581-2.323-.581v-.278a4.078,4.078,0,0,0,1.742-3.332V10.6a4.172,4.172,0,0,0-3.94-4.209,4.065,4.065,0,0,0-4.189,4.063v1.161a4.076,4.076,0,0,0,1.742,3.332v.279l-2.323.581-2.323-.581v-.278a4.078,4.078,0,0,0,1.742-3.332V10.6a4.28,4.28,0,0,0-.451-1.907ZM9.653,5.179l1.855-1.855,1.633,1.063.312-.192a8.665,8.665,0,0,1,2.514-1.043l.357-.086.4-1.9h2.543l.4,1.9.357.085a8.673,8.673,0,0,1,2.514,1.043l.312.192,1.633-1.063,1.853,1.853-.659,1.542a4.059,4.059,0,0,0-1.226.815c-.024.023-.044.048-.067.072a7.541,7.541,0,0,0-12.806.035A4.1,4.1,0,0,0,10.3,6.732Zm-2.1,10.952V14.292l-.29-.168a2.911,2.911,0,0,1-1.452-2.511V10.451A2.9,2.9,0,0,1,8.8,7.55,3,3,0,0,1,11.613,10.6v1.015a2.914,2.914,0,0,1-1.453,2.513l-.29.168,0,1.837,1.992.5a2.889,2.889,0,0,0-.832,2.023v.43l-1.811.4.047-.164.022-1.073L6.228,16.461ZM1.161,15.1h.423L5.76,17.532,3.653,25.96l-2.492-.831ZM5.9,26.709l-1.143-.381L6.8,18.142l1.324.772v.166l-2.18,7.63Zm3.97,1.672a.655.655,0,0,1,.191-.46L11.082,26.9a.651.651,0,0,1,.921.921l-1.021,1.021a.651.651,0,0,1-1.111-.46Zm1.742,1.742a.655.655,0,0,1,.191-.46l1.021-1.021a.651.651,0,0,1,.921.921l-1.021,1.021a.651.651,0,0,1-1.111-.46Zm1.742,1.742a.655.655,0,0,1,.191-.46l1.021-1.021a.651.651,0,0,1,.921.921l-1.021,1.021a.651.651,0,0,1-1.111-.46Zm2.393,2.393a.651.651,0,0,1-.46-1.111l1.021-1.021a.651.651,0,0,1,.921.921l-1.021,1.021A.655.655,0,0,1,15.747,34.258Zm2.808.581h-.107a.6.6,0,0,1-.4-.152l-.434-.383.436-.436a1.805,1.805,0,0,0,.366-.54l.528.439a.606.606,0,0,1-.388,1.071Zm5.207-5.226h-.1a.623.623,0,0,1-.4-.145l-3.149-2.624-.744.893,3.058,2.548a.606.606,0,0,1-.388,1.071h-.127a.606.606,0,0,1-.387-.141l-3.154-2.628-.744.893,3.058,2.548A.605.605,0,0,1,20.3,33.1a.959.959,0,0,1-.611-.221l-1.3-1.08a1.806,1.806,0,0,0-1.559-1.015,1.808,1.808,0,0,0-1.742-1.742A1.808,1.808,0,0,0,13.347,27.3a1.808,1.808,0,0,0-3.087-1.218L9.24,27.1a1.789,1.789,0,0,0-.163.2l-1.784-1.07,1.564-5.472,3.92-.872a5.982,5.982,0,0,1,3.115.141l.855.274-2.9,1.45a1.935,1.935,0,0,0-1.074,1.74V23.6a1.945,1.945,0,0,0,2.946,1.668l2.162-1.3a1.2,1.2,0,0,1,1.392.134l4.906,4.415a.625.625,0,0,1-.418,1.089Zm11.076-6.746-9.782,4.891c-.032-.034-.065-.066-.1-.1l-4.905-4.415a2.337,2.337,0,0,0-2.767-.268l-2.163,1.3a.783.783,0,0,1-1.186-.673v-.115a.779.779,0,0,1,.433-.7l3.239-1.619A2.524,2.524,0,0,1,19.417,21l3.649,1.042.884.022,10.889-5.731Zm0,0" transform="translate(0 0)" fill="#fff"/>
</svg>
