<svg xmlns="http://www.w3.org/2000/svg" width="8.162" height="6.689" viewBox="0 0 8.162 6.689">
  <g id="Group_131" data-name="Group 131" transform="translate(0 0)">
    <path id="Path_714" data-name="Path 714" d="M26.316,40.716a3.645,3.645,0,0,0,1.757-.306,3.073,3.073,0,0,0,.7-.419,1.7,1.7,0,0,1-.727-.183,1.644,1.644,0,0,1-.8-.9c-.037-.089-.037-.089.064-.083a1.365,1.365,0,0,0,.617-.043,1.5,1.5,0,0,1-.4-.156,1.683,1.683,0,0,1-.911-1.43c-.006-.076.015-.086.083-.052a1.706,1.706,0,0,0,.66.183c-.107-.1-.2-.177-.284-.26a1.73,1.73,0,0,1-.266-1.907c.043-.083.058-.083.116-.018a4.756,4.756,0,0,0,2.934,1.638c.122.024.251.028.376.049.083.012.092-.024.079-.092a1.684,1.684,0,0,1,2.818-1.513.176.176,0,0,0,.183.046,3.24,3.24,0,0,0,.889-.345.2.2,0,0,0,.073-.046,1.675,1.675,0,0,1-.712.929,3.314,3.314,0,0,0,.908-.241c.006.043-.024.067-.04.1a3.36,3.36,0,0,1-.7.712.145.145,0,0,0-.061.138,4.919,4.919,0,0,1-1.161,3.286,4.57,4.57,0,0,1-2.812,1.58,4.807,4.807,0,0,1-3.35-.654Z" transform="translate(-26.316 -34.764)" fill="#fff" fill-rule="evenodd"/>
  </g>
</svg>
